<?xml version="1.0" encoding="UTF-8"?>
<svg fill="#ffc68c" stroke="#222" stroke-width="0.5" width="1010" height="970" viewBox="0 0 1010 970"  xmlns="http://www.w3.org/2000/svg" xmlns:amcharts="http://amcharts.com/ammap" xmlns:xlink="http://www.w3.org/1999/xlink" version="1.1">
<g id="Административный район">
   <polygon id="_125668112" points="656.478,505.384 664.867,517.484 664.865,517.489 665.119,517.888 657.686,523.217 657.694,521.618 644.947,527.067 643.551,523.42 648.634,521.62 650.446,520.456 651.093,507.516 "/>
   <polygon id="_126322056" points="630.288,504.681 630.187,504.749 "/>
   <polygon id="_125617880" points="630.441,504.583 630.337,504.649 "/>
   <polygon id="_126570904" points="630.597,504.486 630.471,504.564 "/>
   <polygon id="_125575512" points="630.742,504.401 630.602,504.483 "/>
   <polygon id="_125554528" points="630.89,504.318 630.752,504.395 "/>
   <polygon id="_125633720" points="643.551,523.42 648.634,521.62 650.446,520.456 651.093,507.516 656.478,505.384 652.853,500.154 655.02,498.701 651.818,493.131 651.783,493.164 637.437,501.71 630.993,504.263 633.624,510.621 638.8,507.386 641.129,517.091 "/>
   <polygon id="_127504352" points="644.947,527.067 641.129,517.091 638.8,507.386 633.624,510.621 630.993,504.263 630.89,504.318 622.487,517.8 620.236,523.397 618.665,524.536 616.707,527.988 621.126,529.928 622.062,529.429 627.242,529.179 631.422,528.93 637.974,529.866 642.03,528.306 642.03,528.315 642.032,528.312 "/>
   <polygon id="_125549120" points="657.547,542.938 657.556,543.119 "/>
   <polygon id="_126329800" points="657.547,542.825 657.547,542.934 "/>
   <polygon id="_126399104" points="657.572,542.556 657.553,542.712 "/>
   <polygon id="_125151304" points="657.686,523.217 665.119,517.888 664.865,517.489 664.867,517.484 664.871,517.49 667.105,515.874 671.141,519.945 671.204,521.221 675.088,527.783 676.337,529.773 674.533,530.766 674.418,531.342 668.617,535.275 659.711,541.159 657.594,542.44 "/>
   <polygon id="_20347192" points="642.032,528.312 657.694,521.618 657.594,542.44 657.556,543.119 657.31,559.697 640.386,559.518 641.602,552.319 641.658,551.026 642.03,528.315 "/>
   <polygon id="_125133552" points="641.658,551.029 642.03,528.306 637.974,529.866 631.422,528.93 627.242,529.179 622.062,529.429 621.126,529.928 616.707,527.988 615.568,529.993 615.681,533.786 614.149,539.33 609.561,547.667 606.795,550.634 608.603,552.285 610.646,551.739 615.147,552.713 617.956,549.876 619.965,549.249 622.779,550.443 624.088,550.59 629.489,547.608 632.068,547.967 639.839,549.45 "/>
</g>
<g id="Василеостровский район">
   <polygon id="_124853488" points="629.289,476.622 635.672,480.928 641.488,484.347 641.488,484.348 640.475,483.857 612.267,498.728 609.194,492.974 604.143,495.499 599.759,487.15 599.753,487.151 599.759,487.162 597.764,483.272 594.707,482.342 595.012,481.682 595.771,481.943 598.827,482.608 601.485,483.937 603.346,485.266 608.795,482.475 610.759,482.77 612.969,483.277 615.44,481.707 617.891,481.717 620.914,482.18 624.571,479.654 626.633,479.354 "/>
   <polygon id="_127461744" points="612.267,498.728 640.475,483.857 642.382,484.749 652.124,485.761 655.064,487.791 651.783,493.164 637.437,501.71 630.89,504.318 622.487,517.8 620.236,523.397 613.588,525.649 606.975,522.615 611.719,513.706 607.599,508.922 615.44,504.669 "/>
   <polygon id="_127474792" points="606.975,522.615 611.719,513.706 607.599,508.922 615.44,504.669 609.194,492.974 604.143,495.499 599.759,487.15 599.753,487.151 599.759,487.162 584.873,492.841 585.537,494.303 577.794,497.308 580.993,504.772 585.19,508.773 589.944,509.966 593.123,512.657 597.075,515.122 596.928,515.777 598.073,516.775 598.777,516.11 600.822,518.888 "/>
   <polygon id="_127364992" points="577.794,497.308 585.537,494.303 584.873,492.841 599.759,487.162 597.764,483.272 594.707,482.342 595.012,481.682 576.164,475.2 574.312,484.043 574.312,487.144 576.972,495.391 "/>
   <polygon id="_125780176" points="576.164,475.199 595.771,481.943 598.827,482.608 601.485,483.937 603.346,485.266 608.795,482.475 610.759,482.77 612.969,483.277 615.44,481.707 617.891,481.717 620.914,482.18 624.571,479.654 626.633,479.354 629.289,476.622 619.926,469.142 618.028,468.19 607.274,464.993 597.268,457.282 592.123,458.596 579.937,466.445 578.401,471.532 577.54,471.688 "/>
</g>
<g id="Выборгский район">
   <polygon id="_124792448" points="708.885,290.955 707.497,289.874 705.926,278.966 704.09,274.834 700.591,272.151 677.852,274.803 675.003,272.716 662.86,266.761 660.312,264.943 656.138,272.372 648.028,267.737 648.175,264.643 645.351,264.44 636.529,253.912 636.48,246.287 635.485,246.287 635.467,244.734 633.76,242.935 633.576,234.168 630.568,229.46 631.028,228.538 629.426,222.934 625.97,220.558 621.076,223.812 613.925,227.108 608.995,230.049 600.591,231.461 595.704,234.881 587.292,231.743 573.622,230.896 573.616,230.87 573.494,230.818 571.406,230.594 565.553,228.172 564.509,230.375 564.764,230.908 562.288,235.92 595.557,250.708 609.149,261.582 614.586,271.096 570.966,287.829 530.825,316.969 530.724,316.959 530.696,317.057 530.224,319.157 531.365,321.588 529.571,323.389 528.816,326.984 529.124,330.621 529.232,330.707 573.681,310.381 575.517,314.459 580.117,311.994 586.261,314.628 588.933,313.546 594.941,328.432 633.136,304.851 645.307,326.488 634.827,307.856 640.655,310.638 647.871,310.275 652.498,307.872 659.181,307.065 682.561,317.751 682.542,317.742 696.622,286.645 709.318,292.519 "/>
   <polygon id="_127397360" points="530.825,316.969 570.966,287.829 614.586,271.096 609.149,261.582 595.557,250.708 562.288,235.92 562.277,235.943 552.305,231.476 536.855,225.308 536.442,226.441 536.914,227.322 536.004,233.709 533.075,236.447 528.418,232.765 526.688,233.9 525.839,233.143 522.722,235.409 519.108,233.143 518.258,232.765 517.911,233.671 516.569,233.864 516.246,234.489 515.706,234.057 514.26,235.188 514.009,236.258 513.569,236.919 514.388,238.618 514.071,240.293 515.047,241.514 514.481,243.021 515.24,243.623 512.183,244.314 508.092,243.874 505.571,242.332 504.219,243.214 503.439,242.662 502.842,242.565 502.583,241.922 501.71,242.173 500.417,241.986 498.903,241.733 496.703,246.923 485.687,258.097 487.862,261.276 489.81,266.812 496.133,271.847 502.426,275.119 508.061,281.132 514.667,293.969 517.686,295.353 520.426,299.129 525.032,303.282 525.119,307.632 530.091,311.472 531.663,313.666 530.724,316.959 "/>
   <polygon id="_126560856" points="682.542,317.742 696.622,286.645 709.318,292.519 710.868,298.107 711.143,299.347 708.119,299.995 685.241,349.171 671.299,342.928 671.297,342.921 682.561,317.751 "/>
   <polygon id="_125633744" points="685.241,349.171 708.119,299.995 711.143,299.347 715.497,318.943 714.846,320.638 716.712,321.54 708.468,337.502 699.839,355.708 "/>
   <polygon id="_127403112" points="671.297,342.921 682.561,317.751 659.181,307.065 652.498,307.872 647.871,310.275 640.655,310.638 634.827,307.856 647.61,330.583 649.444,338.208 656.751,369.341 664.932,363.123 666.203,356.516 671.282,342.921 671.299,342.928 "/>
   <polygon id="_127388832" points="699.47,380.736 683.832,392.223 671.282,375.191 676.511,371.605 672.328,366.526 671.88,361.745 666.352,362.044 656.751,369.341 666.379,410.363 669.703,415.612 669.627,415.652 669.692,415.65 674.176,415.688 674.518,418.918 677.14,419.184 677.71,422.794 683.068,422.718 683.099,422.704 683.058,422.704 683.914,421.142 687.112,421.075 695.734,413.883 696.074,412.338 696.78,410.43 700.402,396.1 "/>
   <polygon id="_127405136" points="699.839,355.708 671.282,342.921 666.203,356.516 664.932,363.123 666.352,362.044 671.88,361.745 672.328,366.526 676.511,371.605 671.282,375.191 683.832,392.223 699.47,380.736 700.176,392.377 698.281,361.154 698.457,358.625 "/>
   <polygon id="_126728384" points="683.068,422.718 677.71,422.794 677.14,419.184 674.518,418.918 674.176,415.688 669.692,415.65 669.627,415.652 667.661,416.702 668.496,418.102 670.468,428.9 670.41,432.663 663.939,438.251 673.694,457.145 674.441,468.752 676.015,473.217 677.622,476.738 683.233,478.336 683.167,475.76 686.746,467.04 684.778,459.747 683.167,449.748 679.695,440.711 693.449,438.783 696.621,441.192 697.619,440.861 696.382,436.483 693.898,431.559 685.593,422.704 683.099,422.704 "/>
</g>
<g id="Приморский район">
   <polygon id="_127394616" points="635.131,381.232 633.497,380.709 639.76,359.519 638.237,350.517 625.91,350.655 625.08,352.178 604.166,363.12 593.501,353.563 573.004,348.301 569.518,345.461 568.707,345.384 568.016,346.346 568.016,347.039 567.171,347.039 566.519,346.923 566.211,347.885 566.557,348.385 565.75,349.193 565.174,349.347 564.79,350.078 564.368,350.886 564.637,351.54 564.368,354.079 564.017,355.674 563.969,355.543 559.712,350.535 552.451,347.405 547.568,348.031 545.44,346.779 542.059,347.28 537.659,349.534 534.495,347.367 533.378,343.734 531.671,341.609 531.852,338.305 534.039,336.457 532.686,334.253 528.762,332.814 528.502,331.406 529.114,330.658 529.215,330.714 573.681,310.381 575.517,314.459 580.117,311.994 586.261,314.628 588.933,313.546 594.941,328.432 633.136,304.851 647.61,330.583 649.444,338.208 661.716,390.497 653.798,383.868 650.141,385.885 635.135,381.22 "/>
   <polygon id="_127125176" points="567.195,396.413 567.179,396.497 "/>
   <polygon id="_127400128" points="567.225,396.3 567.198,396.396 "/>
   <polygon id="_127307256" points="567.246,396.239 567.227,396.293 "/>
   <polygon id="_125095224" points="567.294,396.139 567.247,396.238 "/>
   <polygon id="_126373072" points="564.017,355.675 564.368,354.079 564.637,351.54 564.368,350.886 564.79,350.078 565.174,349.347 565.75,349.193 566.557,348.385 566.211,347.885 566.519,346.923 567.171,347.039 568.016,347.039 568.016,346.346 568.707,345.384 569.518,345.461 573.004,348.301 593.501,353.563 604.166,363.12 625.08,352.178 625.91,350.655 638.237,350.517 639.76,359.519 633.497,380.709 626.031,378.32 623.872,374.764 600.123,386.829 601.265,393.938 577.204,386.632 573.765,391.077 567.416,395.989 567.324,396.093 565.472,397.36 564.72,396.984 565.346,394.856 567.099,392.477 569.404,389.62 570.76,388.279 572.358,385.709 573.573,384.457 574.611,383.713 575.767,381.585 575.576,380.583 576.114,379.456 575.488,378.58 574.736,379.081 573.882,379.361 572.586,378.345 572.888,376.82 573.484,375.7 573.86,374.824 573.02,374.854 570.73,373.822 568.852,371.318 567.482,367.996 567.968,366.635 "/>
   <polygon id="_126776856" points="537.659,349.534 542.059,347.28 545.44,346.779 547.568,348.031 552.451,347.405 559.712,350.535 563.969,355.543 567.968,366.635 567.482,367.996 568.852,371.318 570.73,373.822 573.02,374.854 573.86,374.824 573.484,375.7 572.888,376.82 572.586,378.345 573.882,379.361 574.736,379.081 575.488,378.58 576.114,379.456 575.576,380.583 575.767,381.585 574.611,383.713 573.573,384.457 572.358,385.709 570.76,388.279 569.404,389.62 567.099,392.477 565.346,394.856 564.72,396.984 565.472,397.36 567.324,396.093 567.143,396.991 567.335,397.841 566.842,398.142 567.171,398.58 566.349,399.841 566.595,400.526 565.91,401.512 566.157,402.06 565.472,403.458 565.828,404.663 565.609,405.266 566.239,405.787 565.417,406.17 565.855,407.074 564.622,407.266 565.39,407.732 565.664,408.773 565.362,408.91 564.842,408.472 564.595,408.992 564.924,409.677 564.376,410.746 564.403,412.335 564.047,412.965 564.759,414.144 564.513,414.774 563.828,415.185 564.981,416.551 562.995,416.539 560.078,417.669 559.791,416.902 557.722,417.444 558.572,419.116 561.749,418.617 561.873,419.825 561.749,419.954 561.159,421.235 561.142,424.283 559.991,425.007 559.043,424.99 557.522,424.16 556.246,424.611 554.844,424.085 551.073,423.759 549.949,424.218 549.791,425.586 546.786,424.835 546.772,422.226 545.267,421.835 544.201,421.048 542.033,421.062 540.611,420.135 537.625,419.562 536.322,419.994 534.167,419.357 532.314,420.046 529.604,419.469 528.003,418.836 526.531,418.385 525.042,418.573 523.812,418.218 522.936,418.581 521.058,418.458 517.78,417.224 514.846,416.054 512.721,416.507 510.985,416.396 509.306,416.576 504.738,415.841 501.238,413.445 500.014,413.56 499.539,414.731 498.728,414.33 499.136,413.913 498.779,413.497 497.662,413.015 497.08,411.791 497.49,410.975 492.77,409.001 486.054,408.148 477.47,404.391 473.303,403.23 474.027,403.432 478.371,395.665 480.215,396.345 485.234,394.521 487.948,359.404 509.306,355.179 517.368,351.86 538.366,350.742 537.909,349.602 "/>
   <polygon id="_126778864" points="474.027,403.432 478.371,395.665 470.773,392.86 465.974,391.822 458.786,388.903 462.381,382.917 450.895,376.521 451.163,375.781 448.686,374.248 449.638,371.709 444.292,368.241 442.287,371.851 435.204,367.931 424.333,352.332 415.334,344.808 413.461,340.798 412.394,332.245 411.636,331.579 409.944,332.243 408.788,332.556 407.85,331.486 406.965,331.666 405.799,331.041 404.932,331.476 404.909,331.505 404.876,332.329 398.811,340.072 396.881,340.201 397.095,341.703 397.867,342.089 398.082,344.32 403.316,343.59 403.659,346.164 398.827,347.021 401.547,363.936 400.867,367.597 406.177,370.344 409.447,368.993 410.545,369.176 407.703,370.641 407.626,371.355 405.959,372.219 404.686,372.106 403.954,371.19 401.207,373.021 402.489,373.631 401.573,373.937 400.658,374.852 400.475,376.134 401.66,376.823 401.887,378.665 402.426,379.48 400.387,381.318 400.837,381.896 402.862,380.188 403.728,380.413 406.191,381.395 406.571,382.214 408.485,382.644 408.662,383.467 409.314,383.658 409.872,384.274 410.937,384.359 411.457,385.233 411.954,385.895 413.797,386.327 414.336,387.162 415.756,387.162 419.27,389.226 424.089,392.068 425.978,393.304 429.427,394.813 431.193,397.961 436.924,397.865 436.714,399.287 437.452,400.17 437.962,399.267 440.64,400.816 443.039,401.858 448.953,401.619 450.585,400.678 458.466,401.562 464.306,401.178 465.829,401.455 467.058,402.168 468.369,401.946 470.072,403.069 473.303,403.23 "/>
   <polygon id="_127307768" points="601.265,393.938 577.204,386.632 573.765,391.077 567.416,395.989 567.143,396.991 567.335,397.841 566.842,398.142 567.171,398.58 566.349,399.841 566.595,400.526 565.91,401.512 566.157,402.06 565.472,403.458 565.828,404.663 565.609,405.266 566.239,405.787 565.417,406.17 565.855,407.074 564.622,407.266 565.39,407.732 565.664,408.773 565.362,408.91 564.842,408.472 564.595,408.992 564.924,409.677 564.376,410.746 564.403,412.335 564.047,412.965 564.759,414.144 564.513,414.774 563.828,415.185 564.981,416.551 562.995,416.539 560.078,417.669 559.791,416.902 557.722,417.444 558.572,419.116 561.749,418.617 561.873,419.825 562.707,419.483 563.541,420.344 563.588,420.865 566.814,425.181 570.358,428.605 572.25,430.539 576.095,431.678 577.811,432.091 577.043,433.555 580.403,434.76 582.119,433.897 583.198,433.561 584.081,431.418 585.726,431.633 587.542,433.479 590.719,434.88 594.819,434.772 601.254,432.214 610.595,430.968 617.963,430.9 619.77,431.036 621.232,422.924 619.805,422.616 615.19,422.261 614.982,404.863 616.633,398.005 601.266,393.941 "/>
   <polygon id="_127309288" points="615.19,422.261 614.982,404.863 616.633,398.005 601.266,393.941 600.123,386.829 623.872,374.764 626.031,378.32 635.131,381.232 629.713,399.126 631.604,414.384 639.558,421.246 638.544,421.668 636.409,422.854 626.946,424.153 619.805,422.616 "/>
   <polygon id="_127311792" points="661.716,390.497 653.798,383.868 650.141,385.885 635.135,381.22 629.713,399.126 631.604,414.384 639.558,421.246 647.972,417.754 658.943,406.961 664.161,406.724 665.903,408.337 "/>
   <polygon id="_127488928" points="665.903,408.337 664.161,406.724 658.943,406.961 647.972,417.754 638.544,421.668 636.409,422.854 626.946,424.153 619.805,422.616 615.179,422.261 615.465,430.923 617.963,430.9 626.127,432.767 630.309,432.994 637.274,431.752 644.636,431.457 649.366,432.447 655.195,434.607 659.756,436.359 663.918,438.269 670.41,432.663 670.468,428.9 668.496,418.102 667.661,416.702 669.703,415.612 666.379,410.363 "/>
</g>
<g id="Калининский район">
   <polygon id="_126593344" points="691.287,428.775 692.259,427.984 695.837,429.701 709.114,439.57 716.524,441.664 721.357,431.676 732.795,436.187 737.237,438.948 730.177,451.063 726.012,469.516 720.551,474.705 711.589,471.069 704.315,475.417 697.494,478.646 685.857,478.82 684.741,478.614 683.227,478.089 683.167,475.76 686.746,467.04 684.778,459.747 683.167,449.748 679.695,440.711 693.449,438.783 696.621,441.192 697.619,440.861 696.382,436.483 693.898,431.559 "/>
   <polygon id="_125586984" points="691.287,428.775 692.259,427.984 695.837,429.701 709.114,439.57 716.524,441.664 721.357,431.676 732.795,436.187 737.237,438.948 754.014,410.161 750.862,385.774 752.05,380.685 747.617,387.696 738.112,403 734.89,404.933 724.418,398.65 718.457,409.122 715.609,417.236 707.752,414.944 703.036,420.605 692.423,417.21 687.112,421.075 683.914,421.142 683.058,422.704 685.593,422.704 "/>
   <polygon id="_125567408" points="696.932,410.796 696.947,410.878 "/>
   <polygon id="_125451216" points="737.571,379.014 737.665,379.056 "/>
   <polygon id="_125232256" points="733.723,377.627 733.744,377.645 "/>
   <polygon id="_125652704" points="733.667,377.573 733.698,377.604 "/>
   <polygon id="_126364488" points="733.591,377.476 733.617,377.512 "/>
   <polygon id="_126329648" points="733.261,377.057 733.556,377.425 "/>
   <polygon id="_125407248" points="752.485,376.272 752.485,376.272 752.535,377.566 "/>
   <polygon id="_127288504" points="692.423,417.21 703.036,420.605 707.752,414.944 715.609,417.236 718.457,409.122 724.418,398.65 734.89,404.933 738.112,403 747.617,387.696 752.05,380.685 752.269,379.746 752.535,377.57 752.522,377.973 751.755,378.364 750.358,377.665 748.961,378.214 747.564,378.464 746.366,378.513 746.316,379.162 745.119,379.861 743.971,380.36 742.973,380.909 742.025,380.709 740.977,381.058 740.678,380.31 740.079,379.761 739.081,379.661 738.283,379.312 737.704,379.073 738.066,379.221 729.896,394.623 721.196,390.112 716.524,399.778 712.014,397.845 705.57,414.116 696.869,411.439 696.074,412.338 695.734,413.883 "/>
   <polygon id="_127275856" points="708.294,361.224 708.281,361.247 "/>
   <polygon id="_125707000" points="696.869,411.439 705.57,414.116 712.014,397.845 716.524,399.778 721.196,390.112 729.896,394.623 738.066,379.221 737.284,378.863 736.386,378.164 735.538,378.314 734.74,377.366 733.891,377.715 733.193,377.016 732.494,377.066 732.245,376.368 731.596,374.372 730.498,373.124 729.101,372.625 727.953,372.326 727.953,371.428 727.055,370.929 726.556,371.378 725.957,371.328 725.546,370.941 727.022,367.712 727.022,367.712 725.546,370.941 724.706,370.306 723.708,369.689 722.569,370.127 722.014,369.777 722.014,368.93 721.08,368.835 720.642,368.112 720.759,367.149 719.729,366.594 718.861,366.828 717.547,366.565 716.145,365.806 715.094,365.572 714.773,364.9 713.766,364.754 713.488,364.054 713.05,363.207 711.023,362.547 709.926,362.26 708.245,361.294 708.246,361.292 707.282,361.868 706.871,362.772 707.217,364.224 698.372,359.846 698.281,361.154 700.176,392.377 699.47,380.736 700.402,396.1 696.78,410.43 "/>
   <polygon id="_127269640" points="738.427,336.934 737.591,336.49 737.591,336.49 "/>
   <polygon id="_127328944" points="725.546,370.941 725.957,371.328 726.556,371.378 727.055,370.929 727.953,371.428 727.953,372.326 729.101,372.625 730.498,373.124 731.596,374.372 732.245,376.368 732.494,377.066 733.193,377.016 733.891,377.715 734.74,377.366 735.538,378.314 736.386,378.164 737.284,378.863 738.283,379.312 739.081,379.661 740.079,379.761 740.678,380.31 740.977,381.058 742.025,380.709 742.973,380.909 743.971,380.36 745.119,379.861 746.316,379.162 746.366,378.513 747.564,378.464 748.961,378.214 750.358,377.665 751.755,378.364 752.522,377.973 751.581,372.035 752.966,353.354 751.557,349.465 748.352,345.668 739.009,341.5 "/>
   <polygon id="_127280160" points="739.009,341.5 725.546,370.941 724.706,370.306 723.708,369.689 722.569,370.127 722.014,369.777 722.014,368.93 721.08,368.835 720.642,368.112 720.759,367.149 719.729,366.594 718.861,366.828 717.547,366.565 716.145,365.806 715.094,365.572 714.773,364.9 713.766,364.754 713.488,364.054 713.05,363.207 711.023,362.547 709.926,362.26 708.245,361.294 708.312,361.19 722.501,328.46 719.438,326.83 738.427,336.934 736.587,340.419 "/>
   <polygon id="_125133992" points="722.501,328.46 708.312,361.19 707.282,361.868 706.871,362.772 707.217,364.224 698.372,359.846 698.457,358.625 708.468,337.502 716.712,321.54 717.644,322.137 717.119,322.987 717.695,323.451 716.656,325.35 "/>
</g>
<g id="Колпинский район">
   <polygon id="_126782160" points="857.002,712.506 862.629,716.213 862.63,716.229 866.881,717.332 871.458,720.019 874.245,716.139 876.135,716.636 876.467,714.49 879.792,711.78 869.452,698.887 865.548,696.034 861.896,691.331 857.595,684.143 853.844,681.433 846.311,675.344 843.642,673.787 839.651,672.129 839.685,672.149 838.144,675.64 835.744,676.331 845.059,684.225 855.092,695.422 844.093,702.212 856.994,712.465 "/>
   <polygon id="_126413696" points="972.527,783.522 972.535,783.402 "/>
   <polygon id="_126318632" points="972.524,783.643 972.525,783.584 "/>
   <polygon id="_127366536" points="972.525,783.77 972.524,783.701 "/>
   <polygon id="_127389936" points="972.534,783.937 972.527,783.825 "/>
   <polygon id="_125167152" points="905.197,723.07 904.589,722.847 "/>
   <polygon id="_127289968" points="905.498,723.189 905.218,723.078 "/>
   <polygon id="_125057696" points="906.113,723.454 905.852,723.338 "/>
   <polygon id="_127029184" points="917.509,730.385 917.299,730.305 "/>
   <polygon id="_127168232" points="918.783,730.837 917.938,730.543 "/>
   <polygon id="_126830464" points="903.461,745.808 907.117,748.29 910.513,748.681 944.969,752.991 955.693,760.786 963.758,770.055 968.365,775.01 979.948,775.642 979.535,774.621 968.365,773.985 964.355,769.562 966.792,761.878 962.78,755.545 957.047,753.371 957.962,750.235 964.099,740.617 957.505,737.211 951.798,736.562 943.054,737.634 934.937,736.746 927.347,732.487 923.135,731.981 918.793,730.84 919.111,730.945 914.641,739.422 909.766,737.233 909.467,734.247 910.363,733.452 909.169,731.66 907.876,730.765 906.582,730.268 903.995,733.85 903.398,745.889 "/>
   <polygon id="_127016352" points="900.737,721.896 900.737,721.896 904.579,722.843 "/>
   <polygon id="_127312312" points="903.398,745.889 903.995,733.85 906.582,730.268 907.876,730.765 909.169,731.66 910.363,733.452 909.467,734.247 909.766,737.233 914.641,739.422 919.111,730.945 916.261,729.885 914.027,728.478 906.59,723.679 896.287,721.412 880.163,712.267 879.792,711.78 876.467,714.49 876.135,716.636 874.245,716.139 871.458,720.019 866.881,717.332 862.63,716.229 863.105,722.823 868.329,740.454 868.329,745.678 876.235,744.452 876.016,746.926 878.085,747.099 878.403,748.366 878.729,750.083 879.825,750.902 880.154,752.372 880.897,752.986 881.389,754.33 882.537,755.603 883.218,757.954 883.22,758.607 883.637,760.046 883.323,760.88 882.72,762.394 883.059,764.017 882.956,764.876 899.972,752.062 903.434,745.938 "/>
   <polygon id="_126825072" points="823.517,685.733 804.014,670.634 803.494,678.177 794.502,688.071 794.319,690.233 770.804,655.269 770.787,655.243 758.613,656.967 730.042,665.73 730.042,665.73 735.468,664.066 737.298,665.814 741.313,667.491 739.768,671.014 745.91,673.633 756.117,699.933 770.404,713.195 776.78,717.698 782.938,718.983 785.661,721.775 799.073,730.69 808.849,712.033 "/>
   <polygon id="_126423024" points="856.994,712.465 844.093,702.212 855.092,695.422 845.059,684.225 835.744,676.331 833.713,676.915 832.731,678.151 831.06,676.915 830.19,678.039 830.681,678.489 830.64,679.458 831.635,680.441 830.527,681.045 830.752,681.915 830.752,682.028 830.078,682.59 828.588,683.039 826.873,682.394 826.031,682.927 826.295,684.15 825.636,684.629 825.832,686.035 824.75,686.623 823.517,685.733 808.849,712.033 827.315,739.489 832.172,739.398 840.469,733.669 856.97,712.478 857.002,712.506 "/>
   <polygon id="_127518104" points="963.758,770.055 955.693,760.786 944.969,752.991 910.513,748.681 907.117,748.29 903.461,745.808 899.972,752.062 882.956,764.876 883.059,764.017 882.72,762.394 883.323,760.88 883.637,760.046 883.22,758.607 883.218,757.954 882.537,755.603 881.389,754.33 880.897,752.986 880.154,752.372 879.825,750.902 878.729,750.083 878.403,748.366 878.085,747.099 876.016,746.926 876.235,744.452 868.329,745.678 868.329,740.454 863.105,722.823 862.629,716.213 856.97,712.478 840.469,733.669 832.172,739.398 827.315,739.489 808.847,712.03 799.073,730.69 799.726,731.125 799.726,732.393 801.708,731.292 802.662,731.733 801.561,734.302 801.561,734.375 801.781,734.742 803.176,733.347 803.543,733.935 803.249,735.182 801.802,736.617 801.121,736.283 799.286,738.118 799.286,738.192 799.286,739.293 800.554,739.539 800.814,740.701 799.113,741.568 797.912,741.201 797.231,740.273 796.596,740.908 797.231,742.302 797.057,742.462 796.116,743.616 796.13,744.644 796.937,744.717 796.69,745.438 797.658,747.273 796.47,747.713 794.942,748.948 794.955,750.002 796.57,750.229 796.056,751.624 795.723,752.725 794.488,752.464 794.575,754.073 793.608,755.514 793.608,757.022 792.706,757.268 792.567,758.55 791.797,758.539 791.207,759.642 791.865,761.465 793.047,761.239 793.047,761.313 793.399,762.262 792.973,763.826 794.074,764.249 793.23,764.593 793.302,765.535 792.3,765.352 792.538,767.554 796.34,771.007 804.277,775.633 803.784,782.345 826.915,781.038 826.839,781.93 828.673,785.339 828.187,790.966 827.179,793.924 826.799,794.642 826.353,799.925 830.587,802.214 837.334,808.545 837.298,809.402 842.128,810.264 842.545,810.04 847.343,811.84 858.662,812.289 865.333,810.116 872.94,809.74 872.829,803.107 883.698,802.657 894.641,824.208 917.131,821.097 923.15,820 921.843,817.593 921.737,816.318 921.03,815.15 920.641,813.699 920.783,812.849 920.111,812.035 920.148,810.784 919.76,810.057 920.82,808.414 921.968,808.463 932.347,790.851 938.943,787.928 945.689,787.928 978.56,793.476 976.16,789.389 973.724,786.541 976.948,780.282 980.658,777.395 979.958,775.637 968.365,775.01 "/>
</g>
<g id="Красногвардейский район">
   <polygon id="_125182168" points="800.419,491.409 805.402,454.263 815.23,449.947 816.458,451.837 824.792,448.078 826.853,448.078 828.498,447.262 834.448,458.851 835.654,457.052 839.659,457.193 842.12,456.033 844.739,455.866 839.765,451.897 837.781,453.22 837.403,452.369 838.253,451.708 835.796,445.376 836.363,443.486 834.568,442.825 834.001,444.715 831.449,444.337 831.26,443.014 834.508,440.402 833.318,440.175 831.058,441.274 829.465,441.162 827.858,440.252 826.346,440.067 825.866,438.964 822.755,437.718 819.945,437.774 819.095,438.89 817.004,438.379 818.898,436.704 818.786,434.565 819.542,435.492 820.375,435.041 820.088,433.461 820.603,432.356 820.865,431.257 821.845,431.919 822.94,431.919 823.228,430.497 824.159,429.556 822.472,428.139 821.432,429.084 821.448,427.889 821.149,426.343 821.982,427.116 823.133,425.776 822.909,424.621 822.188,423.319 806.81,434.796 805.861,434.646 804.791,432.215 803.773,431.762 804.044,431.111 802.056,430.256 801.591,424.166 802.175,422.761 801.149,420.669 799.817,420.054 799.126,419.363 799.62,417.141 798.92,413.894 798.588,411.773 799.452,408.874 799.34,406.812 800.436,405.369 801.076,402.151 797.24,399.827 796.858,402.413 793.902,400.622 793.026,398.483 791.118,399.539 792.429,402.625 792.233,404.296 790.07,409.702 790.562,416.19 793.117,419.139 793.019,422.285 793.412,425.43 790.955,430.05 792.429,433.786 791.938,436.735 785.647,435.358 763.431,433.491 754.485,438.799 753.994,448.826 754.363,468.486 754.365,468.615 754.439,468.528 760.034,468.483 765.806,466.503 770.232,475.691 778.64,471.805 786.71,488.401 787.697,492.021 798.338,491.911 798.447,490.595 "/>
   <polygon id="_127310280" points="753.656,505.075 753.605,505.15 752.949,506.127 752.949,506.127 753.605,505.15 "/>
   <polygon id="_124622864" points="754.439,468.528 760.034,468.483 765.806,466.503 770.232,475.691 778.64,471.805 786.71,488.401 787.697,492.021 798.338,491.911 798.447,490.595 800.419,491.409 797.948,509.825 767.917,505.857 759.324,502.787 753.796,504.881 753.799,504.877 755.007,499.739 754.877,496.528 754.91,496.516 754.365,468.615 "/>
   <polygon id="_127634160" points="754.877,496.528 755.007,499.739 753.799,504.877 753.605,505.15 740.754,524.288 737.068,528.162 725.729,533.972 721.416,524.999 717.413,520.13 715.282,514.884 716.846,506.522 720.446,497.817 721.977,487.596 724.6,488.1 727.139,491.862 729.194,496.88 729.237,500.268 730.692,503.013 730.607,505.415 734.374,506.444 735.701,504.3 737.413,503.356 738.484,503.314 740.753,504.171 742.636,504.514 744.306,504.128 745.847,503.657 748.501,504.043 750.299,502.713 750.043,500.14 749.772,497.609 751.241,496.752 753.981,496.837 "/>
   <polygon id="_127311296" points="754.91,496.516 753.981,496.837 751.241,496.752 749.772,497.609 750.043,500.14 750.299,502.713 748.501,504.043 745.847,503.657 744.306,504.128 742.636,504.514 740.753,504.171 738.484,503.314 737.413,503.356 735.701,504.3 734.374,506.444 730.607,505.415 730.692,503.013 729.237,500.268 729.194,496.88 727.139,491.862 724.6,488.1 721.977,487.596 722.582,483.558 720.619,474.786 720.551,474.704 726.048,469.356 754.363,468.486 "/>
   <polygon id="_127317792" points="726.048,469.356 754.387,468.486 753.994,448.826 754.485,438.799 763.431,433.491 785.647,435.358 791.938,436.735 792.429,433.786 790.955,430.05 793.412,425.43 793.019,422.285 793.117,419.139 790.562,416.19 790.07,409.702 792.233,404.296 792.429,402.625 791.118,399.539 790.66,399.793 789.869,398.826 787.996,391.288 788.052,389.058 789.457,385.721 790.303,383.294 790.23,378.101 789.169,376.954 785.032,380.326 783.551,379.604 782.554,377.431 780.957,377.658 779.943,376.056 779.744,374.067 778.649,373.762 776.034,374.987 775.291,376.567 773.762,376.636 773.147,374.316 771.631,373.01 771.854,372.1 772.46,371.4 773.546,371.344 774.525,371.014 774.406,370.168 770.626,369.188 770.871,367.032 772.296,364.82 773.791,364.137 774.899,362.629 774.358,361.134 772.115,360.859 770.33,360.1 769.482,357.212 767.413,354.355 767.524,353.462 766.528,353.69 764.638,353.634 763.731,354.278 762.447,353.904 759.587,353.707 756.262,349.682 753.606,351.258 752.726,351.765 752.966,353.354 751.581,372.035 752.269,379.746 750.862,385.774 754.014,410.161 730.177,451.063 "/>
</g>
<g id="Красносельский район">
   <polygon id="_124471072" points="552.728,663.169 552.696,663.218 591.26,658.688 615.726,647.915 617.513,647.005 599.916,666.539 593.508,679.748 583.04,678.727 577.776,694.518 574.951,695.207 563.873,692.421 562.975,695.3 565.938,696.589 568.904,699.361 571.87,700.309 567.084,702.762 561.034,705.912 553.49,710.219 548.447,710.631 546.477,709.667 547.895,707.048 545.589,703.044 533.338,695.294 530.805,698.682 525.654,694.927 525.681,694.946 531.507,684.239 534.134,678.746 534.93,674.846 536.283,671.742 539.546,666.488 542.374,664.446 542.41,664.524 547.239,662.871 "/>
   <polygon id="_126558008" points="508.882,682.356 505.718,689.049 492.448,690.868 492.74,697.74 492.026,699.613 486.572,700.251 485.835,715.717 484.991,718.391 485.716,720.63 484.786,721.15 484.006,719.993 481.182,721.053 477.945,723.023 474.233,723.9 474.926,730.307 461.486,739.269 454.426,743.068 453.442,743.197 443.647,746.152 443.712,748.696 454.318,747.862 455.087,749.464 456.992,749.399 457.771,756.921 463.421,757.625 463.745,758.74 465.022,758.794 464.947,759.756 461.116,759.551 460.314,764.767 463.659,768.513 466.873,771.056 466.83,771.022 484.205,753.647 493.1,746.675 493.341,743.791 499.591,744.151 499.591,750.958 517.482,753.274 526.498,738.479 521.032,734.268 523.824,729.409 523.251,728.705 528.38,719.886 531.422,714.895 531.422,711.356 532.688,707.968 532.266,707.384 533.241,706.053 529.647,703.953 525.513,710.761 523.965,710.133 519.246,717.103 517.374,716.129 516.93,716.897 515.577,716.248 511.724,722.525 509.051,721.032 525.582,695.039 "/>
   <polygon id="_126344456" points="542.374,664.446 539.546,666.488 536.283,671.742 534.93,674.846 534.134,678.746 531.507,684.239 525.681,694.946 525.654,694.927 525.582,695.039 508.882,682.356 508.921,682.274 490.771,668.507 480.922,672.847 476.311,671.018 470.047,670.949 468.425,651.521 468.142,638.096 469.406,637.721 480.503,643.174 484.047,642.067 484.048,641.971 484.056,641.977 487.755,642.498 490.829,643.853 493.069,647.552 492.288,650.626 495.63,652.17 509.481,656.651 509.693,655.707 510.483,654.022 511.301,653.36 511.269,652.477 509.232,648.981 508.974,648.134 509.306,647.509 508.606,646.515 508.79,645.411 509.526,644.234 527.825,644.821 536.223,647.407 536.146,647.995 536.364,648.56 536.842,648.908 537.582,649.735 538.408,650.43 538.147,651.344 537.234,651.431 536.668,651.953 536.929,652.779 537.19,653.693 537.19,654.824 537.582,655.65 537.712,656.346 537.929,657.477 537.755,658.304 538.06,659.478 538.669,660.174 538.625,660.74 541.322,662.132 "/>
   <polygon id="_125722856" points="536.223,647.407 536.146,647.995 536.364,648.56 536.842,648.908 537.582,649.735 538.408,650.43 538.147,651.344 537.234,651.431 536.668,651.953 536.929,652.779 537.19,653.693 537.19,654.824 537.582,655.65 537.712,656.346 537.929,657.477 537.755,658.304 538.06,659.478 538.669,660.174 538.625,660.74 541.322,662.132 542.41,664.524 547.239,662.871 552.728,663.169 558.83,652.405 574.434,631.263 563.627,630.586 563.627,630.567 539.505,628.732 539.782,629.738 539.98,630.992 539.518,632.444 539.518,633.632 538.99,634.688 539.056,636.536 538.66,637.394 539.056,638.318 538.858,638.78 538.924,639.308 538.33,639.902 538.396,640.298 538.066,640.958 537.868,641.222 537.934,641.816 537.34,643.07 536.548,644.918 536.614,645.644 536.482,646.238 536.284,647.426 "/>
   <polygon id="_125141088" points="484.056,641.977 487.755,642.498 490.829,643.853 493.069,647.552 492.288,650.626 495.63,652.17 509.481,656.651 509.693,655.707 510.483,654.022 511.301,653.36 511.269,652.477 509.232,648.981 508.974,648.134 509.306,647.509 508.606,646.515 508.79,645.411 509.526,644.234 527.825,644.821 536.284,647.426 536.482,646.238 536.614,645.644 536.548,644.918 537.34,643.07 537.934,641.816 537.868,641.222 538.066,640.958 538.396,640.298 538.33,639.902 538.924,639.308 538.858,638.78 539.056,638.318 538.66,637.394 539.056,636.536 538.99,634.688 539.518,633.632 539.518,632.444 539.98,630.992 539.782,629.738 539.505,628.732 518.351,627.122 508.957,624.062 509.927,622.655 509.927,620.274 509.927,614.677 509.927,607.283 509.988,607.201 509.533,607.923 508.678,606.971 507.337,606.265 507.187,604.431 506.076,603.787 506.032,600.639 504.621,600.595 503.598,604.105 502.249,604.387 501.252,603.302 500.785,602.931 500.081,601.46 497.769,602.456 494.603,601.786 492.531,599.643 491.085,599.758 489.916,600.562 490.394,610.369 490.394,610.369 490.501,612.556 492.463,615.622 491.991,616.7 488.236,615.778 484.318,616.7 484.048,641.971 "/>
   <polygon id="_126243120" points="582.711,603.843 582.929,603.868 582.929,603.869 "/>
   <polygon id="_125412568" points="563.627,630.567 518.351,627.122 508.957,624.062 509.927,622.655 509.927,607.283 510.15,607.068 511.261,607.747 512.364,607.394 512.505,606.318 513.96,605.771 516.084,604.528 521.728,604.546 526.191,602.235 530.988,593.082 538.245,585.877 543.236,579.52 549.392,577.312 553.688,581.775 566.228,596.663 567.264,596.19 568.921,596.811 574.908,601.741 563.812,624.019 "/>
   <polygon id="_126340968" points="574.908,601.74 563.812,624.019 563.627,630.586 574.434,631.263 577.35,627.313 592.973,607.578 594.949,605.081 587.551,604.094 "/>
   <polygon id="_20379648" points="466.83,771.022 484.205,753.647 493.1,746.675 493.341,743.791 499.591,744.151 499.591,750.958 499.505,750.947 499.624,754.691 499.007,765.525 497.297,780.223 493.152,784.91 492.113,785.235 490.338,789.412 491.096,789.759 490.338,795.246 490.901,795.408 490.078,799.24 489.202,799.803 491.268,808.233 492.318,817.617 494.277,822.445 494.277,824.717 493.574,825.215 497.102,831.319 499.223,830.637 500.695,832.813 507.222,833.159 505.88,838.419 508.055,842.185 508.629,844.88 507.081,849.664 503.444,852.803 498.076,854.166 495.966,852.9 495.846,850 494.645,851.049 492.102,851.125 491.723,848.983 491.842,846.645 492.589,844.599 490.619,845.01 488.487,843.647 482.177,843.332 468.454,817.974 464.449,817.725 463.918,815.95 462.198,816.87 448.766,822.195 445.476,814.76 439.209,816.935 434.707,813.688 437.565,809.402 443.063,811.578 444.491,805.246 443.69,803.493 447.143,797.745 446.721,795.776 447.987,795.635 451.526,790.581 450.801,788.784 456.57,779.455 466.873,771.056 "/>
</g>
<g id="Московский район">
   <polygon id="_127170992" points="655.171,695.91 655.163,695.909 655.163,735.663 660.595,742.254 664.314,744.187 660.696,756.379 658.154,755.217 642.304,782.804 597.043,748.73 599.446,748.039 605.051,742.461 606.404,740.333 612.59,736.66 613.474,736.992 617.451,732.933 615.296,731.083 619.546,725.229 628.58,713.879 628.247,711.533 623.995,705.982 618.528,706.753 615.544,707.887 614.745,714.845 571.811,700.373 571.87,700.309 568.904,699.361 565.938,696.589 562.975,695.3 563.873,692.421 574.951,695.207 577.776,694.518 583.04,678.727 593.508,679.748 599.916,666.539 617.329,647.209 617.45,647.156 628.384,635.094 628.231,645.439 632.915,654.356 635.866,660.386 647.798,660.386 647.798,640.371 651.441,640.386 651.897,595.889 651.898,595.889 651.897,595.911 656.935,595.947 656.693,616.195 656.703,616.207 656.703,616.193 "/>
   <polygon id="_126725056" points="651.897,595.889 651.441,640.386 647.798,640.371 647.798,660.386 635.866,660.386 632.915,654.356 628.231,645.439 628.384,635.094 628.481,634.988 633.391,612.429 635.996,589.718 651.948,589.956 651.898,595.889 "/>
   <polygon id="_127007656" points="656.693,616.195 656.935,595.947 651.897,595.911 651.948,589.956 635.996,589.718 636.207,587.88 641.069,579.411 637.245,579.435 640.574,559.52 657.31,559.697 657.556,543.119 659.711,541.159 668.555,535.315 670.053,541.894 671.992,547.143 671.322,549.047 673.12,551.774 674.13,556.999 674.903,557.004 677.042,567.538 676.572,574.876 680.044,586.805 670.483,589.895 669.025,589.976 668.866,616.365 656.703,616.193 656.703,616.207 "/>
   <polygon id="_127000472" points="690.971,677.112 690.817,677.183 "/>
   <polygon id="_126378336" points="691.478,676.921 691.228,677.007 "/>
   <polygon id="_127006504" points="691.843,676.824 691.759,676.844 "/>
   <polygon id="_126999880" points="655.171,695.91 656.703,616.193 668.866,616.365 668.743,636.738 676.518,639.738 682.686,639.18 685.661,655.215 672.811,657.145 690.802,677.19 690.814,677.184 686.817,679.639 683.724,679.96 680.206,680.841 676.186,682.846 674.832,682.974 672.985,684.17 670.006,688.183 667.294,689.31 665.82,691.669 662.304,693.022 661.95,694.103 658.789,695.876 "/>
   <polygon id="_125233472" points="668.743,636.738 669.025,589.976 670.483,589.895 680.044,586.805 680.118,587.057 682.491,593.112 691.317,631.599 692.446,638.392 700.214,675.008 691.843,676.824 690.802,677.19 672.811,657.145 685.661,655.215 682.686,639.18 676.518,639.738 "/>
</g>
<g id="Петродворцовый район">
   <polygon id="_126232856" points="425.434,596.423 424.205,595.877 422.884,594.843 422.208,594.693 421.922,594.056 421.37,594.292 420.806,593.907 420,593.841 419.237,593.231 418.461,592.283 417.847,590.85 417.356,590.772 417.317,591.655 416.631,591.46 415.707,590.446 415.789,588.882 415.551,588.331 414.395,589.302 413.23,587.597 413.886,586.714 413.466,586.4 412.023,587.792 411.376,586.822 410.73,586.795 409.867,586.175 409.642,585.097 408.78,584.267 409.133,583.432 409.113,582.618 407.496,582.726 405.986,581.54 405.752,580.354 404.947,579.797 403.243,577.473 402.009,576.767 401.743,575.983 400.342,575.728 399.087,574.749 397.496,574.964 396.37,574.626 395.745,573.455 394.128,572.7 393.158,571.083 392.287,570.221 389.601,569.682 388.69,568.73 388.103,568.041 388.199,567.095 387.588,567.256 387.193,567.055 386.486,567.526 384.153,565.647 384.183,561.079 383.456,560.735 383.456,564.939 380.722,564.588 380.332,563.42 378.979,562.959 376.341,563.214 376.126,562.459 373.745,563.333 371.837,563.489 369.731,562.714 368.834,562.803 366.052,562.017 363.807,562.264 361.025,561.677 360.653,560.342 359.74,559.576 357.584,559.657 354.458,558.686 354.458,557.393 356.183,556.53 356.183,554.59 356.614,553.512 354.518,552.806 353.616,554.955 353.488,555.925 351.733,556.689 348.313,555.776 346.912,556.159 342.412,554.787 341.866,553.296 341.327,552.443 340.833,552.146 340.435,551.601 339.962,552.445 339.297,552.484 339.483,551.778 339.187,550.347 339.602,549.838 339.231,549.434 337.435,550.473 336.866,551.505 335.536,550.987 335.497,549.553 334.898,550.113 333.653,550.074 333.029,549.464 330.742,548.338 327.831,545.319 327.657,543.555 326.538,542.516 325.244,542.959 324.1,542.496 322.99,542.684 322.081,541.223 319.944,541.058 318.907,540.214 315.866,539.92 315.327,539.39 314.219,540.117 313.71,539.821 312.955,539.821 312.2,538.959 312.34,537.147 310.907,536.911 309.898,537.803 309.398,537.45 308.927,538.117 308.212,538.037 307.242,538.175 306.379,538.097 305.732,537.126 304.301,536.842 302.93,535.833 301.744,535.833 301.627,536.638 300.358,537.126 294.987,546.851 291.393,555.857 276.66,555.098 269.442,568.912 259.365,587.053 262.24,589.585 268.4,597.433 286.984,583.811 287.963,585.846 290.773,588.219 293.686,587.587 293.222,586.196 294.948,585.641 301.831,588.657 314.022,596.183 313.172,597.756 314.731,601.803 315.169,605.14 318.842,607.485 321.677,604.354 322.374,600.81 323.276,600.72 328.74,609.832 326.703,614.163 326.072,614.935 325.041,614.883 325.016,616.185 325.376,617.164 326.987,617.228 327.052,622.938 332.4,624.291 334.836,621.198 339.05,608.748 341.55,609.109 345.171,609.986 343.947,614.329 349.308,616.288 350.494,612.28 362.003,615.953 361.526,618.234 375.96,623.621 368.137,644.034 373.176,644.408 374.336,646.857 399.75,639.923 400.046,639.15 403.245,639.964 403.523,638.938 403.523,637.215 404.933,635.179 405.559,632.83 412.606,611.846 421.062,614.352 423.204,606.957 422.17,606.47 424.916,596.274 425.429,596.423 "/>
   <polygon id="_127047192" points="426.125,596.2 425.584,596.405 426.105,596.209 "/>
   <polygon id="_126231304" points="426.298,596.278 426.253,596.201 426.2,596.195 "/>
   <polygon id="_127365096" points="403.245,639.964 403.523,638.938 403.523,637.215 404.933,635.179 405.559,632.83 412.606,611.846 421.062,614.352 423.204,606.957 422.17,606.47 424.916,596.274 425.429,596.423 426.105,596.209 426.298,596.278 426.443,596.88 426.987,596.65 426.863,595.759 427.684,595.072 428.312,595.033 429.361,596.494 430.31,597.366 431.585,597.416 431.765,598.208 432.439,598.288 432.595,599.219 433.163,599.543 433.284,600.154 433.799,600.836 434.634,601.286 434.985,602.295 437.083,602.334 437.769,602.735 438.383,602.339 438.855,602.44 439.29,602.013 440.031,601.747 441.086,601.719 441.817,601.325 442.56,602.295 444.54,602.052 445.911,601.657 448.352,601.169 450.184,601.483 451.088,600.933 451.409,598.364 452.047,598.403 451.804,600.187 452.372,600.102 452.382,600.797 451.9,600.914 451.705,601.699 453.34,602.031 454.173,602.355 455.682,602.609 456.329,602.884 457.034,602.735 457.359,603.433 458.054,602.238 458.955,603.364 461.818,602.774 463.123,603.423 464.033,603.52 465.513,604.178 466.286,603.618 466.935,603.882 467.63,602.717 469.453,603.071 470.128,603.345 470.32,602.691 470.91,602.524 472.588,601.403 475.841,601.972 479.79,601.483 484.439,599.442 487.387,599.286 489.925,600.556 489.916,600.562 490.501,612.556 492.463,615.622 491.991,616.7 488.236,615.778 484.318,616.7 484.047,642.067 480.503,643.174 469.406,637.721 468.142,638.096 468.425,651.521 470.047,670.945 466.52,670.622 465.966,671.369 463.569,670.003 458.788,668.315 458.079,667.387 456.184,668.019 455.475,668.907 452.46,668.237 451.609,667.336 450.192,666.91 449.792,665.905 449.264,665.26 448.58,664.126 447.06,663.443 445.977,661.742 445.062,660.879 444.289,660.943 443.993,660.131 443.632,659.719 443.825,659.242 444.444,658.508 444.25,657.644 445.823,657.219 445.474,656.072 446.042,655.492 445.05,653.713 444.985,651.458 444.715,650.44 445.14,649.074 444.83,648.043 445.23,647.347 445.848,647.992 446.145,645.929 447.099,645.581 447.614,645.169 447.886,643.965 447.472,643.764 447.189,642.656 447.975,641.896 448.245,641.006 448.722,639.846 449.547,638.094 438.644,637.269 438.438,637.836 437.536,638.673 436.918,638.558 432.175,642.437 431.131,643.21 430.809,641.65 429.932,640.955 429.572,640.207 430.203,639.628 428.837,638.738 428.025,640.001 426.685,639.898 426.685,638.66 425.035,638.66 424.623,639.382 423.283,638.351 421.221,638.145 419.868,637.23 418.643,637.423 418.14,638.325 417.303,638.351 416.787,637.81 415.795,638.145 414.622,639.588 414.12,639.769 412.895,639.408 412.173,640.929 410.292,642.037 403.797,640.104 "/>
    <polygon class="fil1 str2" points="160.062,487.59 161.852,487.285 162.897,486.54 163.952,486.44 164.931,485.672 165.981,485.672 166.59,485.175 167.451,485.152 176.125,481.5 177.923,479.4 177.449,477.387 179.101,477.305 180.896,478.045 180.012,479.416 180.179,482.998 185.577,485.749 186.584,485.291 187.196,485.137 187.429,483.767 188.279,483.6 188.479,484.161 189.429,484.269 189.596,485.695 188.899,486.425 189.711,486.904 190.313,486.097 190.512,485.175 191.352,484.65 191.967,485.075 194.187,485.175 194.292,484.485 195.509,484.235 196.497,485.07 197.099,486.379 197.967,485.91 198.474,486.246 199.437,486.225 200.309,486.09 200.802,486.65 201.747,486.225 203.007,486.855 203.561,485.385 204.167,486.579 204.664,485.037 205.261,486.722 206.052,487.065 207.003,488.169 207.971,488.341 209.517,487.695 210.386,488.026 211.407,487.695 212.777,488.207 214.281,487.623 215.187,488.274 216.132,488.22 216.619,488.894 217.497,488.64 218.056,488.866 218.757,488.64 220.128,490.42 221.272,492.082 222.046,492.469 223.482,491.985 224.414,492.32 224.648,492.917 225.332,492.709 226.212,493.002 227.334,493.695 228.256,493.327 229.401,493.911 230.202,493.47 230.843,493.911 231.567,493.785 232.164,494.469 232.866,493.737 234.179,493.89 234.822,494.264 236.082,493.68 237.657,494.625 238.392,492.315 239.939,492.31 241.337,493.524 241.844,493.242 242.101,491.918 243.194,491.647 243.642,492.43 245.118,492.31 246.162,492.955 247.079,492.802 247.743,494.077 248.406,494.467 249.312,495.166 250.501,493.847 252.711,492.625 253.794,492.807 258.972,490.95 259.497,491.895 253.197,493.995 250.782,495.36 251.202,495.885 253.507,494.787 253.927,495.46 252.887,496.144 254.624,498.705 257.397,500.19 259.287,495.78 259.812,493.155 260.967,493.365 260.104,496.741 257.922,501.345 255.584,504.085 256.629,505.174 257.756,504.157 258.644,505.046 257.492,507.435 257.397,508.38 256.452,509.054 258.793,510.954 259.413,512.199 258.906,512.867 259.287,513.889 260.601,514.155 261.033,513.894 261.326,514.68 264.117,510.165 264.558,510.48 263.697,512.004 264.332,512.91 265.311,513.005 268.858,515.144 268.676,516.204 269.746,516.084 270.179,517.305 271.788,519.211 271.887,520.56 273.042,519.825 274.092,520.455 274.092,521.61 274.827,521.61 274.909,522.437 276.717,522.66 278.453,523.802 280.812,524.235 283.232,526.622 285.386,526.584 285.781,527.877 287.427,529.38 291.417,529.905 291.246,530.899 292.134,530.722 292.496,532.264 294.844,533.657 296.744,533.685 299.746,535.626 300.374,537.142 300.358,537.126 294.987,546.851 291.393,555.857 276.66,555.098 269.442,568.912 259.371,587.016 249.097,578.64 244.721,581.89 235.017,582.3 234.192,577.977 224.356,576.425 222.576,578.922 221.912,578.989 221.377,577.685 215.116,577.685 209.374,573.275 208.506,562.035 208.339,551.364 218.166,544.047 214.381,532.125 209.607,528.845 206.075,523.92 202.505,521.72 201.012,522.322 192.29,517.884 182.322,513.84 171.508,510.68 165.899,506.401 170.634,494.845 170.247,492.105 169.251,492.133 168.055,491.76 167.489,490.963 163.368,489.652 160.062,489.585 "/>
</g>
<g id="Невский район">
   <polygon id="_125008864" points="736.175,528.619 737.068,528.162 740.754,524.288 753.605,505.15 759.324,502.787 767.917,505.857 797.948,509.825 796.204,521.109 794.674,518.953 771.206,529.008 771.205,529.011 747.952,538.977 737.18,530.038 "/>
   <polygon id="_127392592" points="771.206,529.008 794.674,518.953 796.277,521.211 792.335,546.418 792.88,542.934 779.929,548.333 771.216,529.006 771.205,529.011 "/>
   <polygon id="_126413928" points="779.929,548.333 771.216,529.006 747.952,538.977 737.18,530.038 736.175,528.619 725.729,533.972 725.723,533.96 725.723,533.961 727.525,537.852 737.744,546.946 746.862,559.072 747.597,560.494 761.494,556.019 "/>
   <polygon id="_125132016" points="750.622,569.13 750.622,569.13 750.622,569.131 752.615,567.983 763.874,566.815 764.874,573.154 776.225,568.436 788.615,570.205 792.88,542.934 761.494,556.019 747.596,560.494 "/>
   <polygon id="_125503392" points="788.615,570.205 776.225,568.436 764.874,573.154 763.874,566.815 752.615,567.983 750.622,569.131 751.951,579.724 756.723,590.819 756.712,590.824 758.725,595.614 764.272,601.253 771.944,603.552 771.946,603.548 780.751,610.854 786.391,619.35 786.374,619.355 789.528,618.376 790.381,619.698 796.503,617.966 796.107,616.657 806.613,613.814 792.34,577.523 792.603,576.953 790.795,571.619 788.517,570.83 "/>
   <polygon id="_126421696" points="786.391,619.35 780.751,610.854 771.946,603.548 771.944,603.552 771.976,603.565 768.832,610.446 772.239,612.339 775.51,620.476 776.267,626.596 761.628,633.853 759.104,633.474 757.209,634.515 756.57,635.611 756.79,636.664 757.757,636.536 758.921,638.475 759.767,638.404 770.804,655.269 794.319,690.233 794.502,688.071 803.494,678.177 804.014,670.634 824.75,686.623 825.832,686.035 825.636,684.629 826.295,684.15 826.031,682.927 826.873,682.394 828.588,683.039 830.078,682.59 830.752,682.028 830.752,681.915 830.527,681.045 831.635,680.441 830.64,679.458 830.681,678.489 830.19,678.039 831.06,676.915 832.731,678.151 833.713,676.915 838.144,675.64 839.685,672.149 837.781,671.032 835.023,664.381 836.009,659.071 828.993,653.412 821.052,656.975 816.583,657.009 806.163,651.355 796.391,641.993 787.101,638.019 784.622,634.555 786.229,624.962 786.374,619.355 "/>
   <polygon id="_127125280" points="759.104,633.474 761.628,633.853 776.267,626.596 775.51,620.476 772.239,612.339 768.832,610.446 771.976,603.565 764.272,601.253 758.725,595.614 756.712,590.824 752.282,592.66 753.766,596.871 751.868,597.673 752.243,598.697 741.14,603.766 750.065,621.12 751.848,621.143 751.391,622.814 750.442,624.448 757.209,634.515 "/>
   <polygon id="_127129376" points="750.622,569.13 751.951,579.724 756.723,590.819 752.282,592.66 753.766,596.871 751.868,597.673 752.243,598.697 741.14,603.766 750.065,621.12 751.848,621.143 751.391,622.814 750.442,624.448 749.417,622.923 739.886,612.308 729.779,599.004 719.362,582.648 717.647,579.283 "/>
   <polygon id="_127135136" points="717.647,579.283 750.622,569.13 746.862,559.072 737.744,546.946 727.525,537.852 725.723,533.961 725.723,533.96 721.416,524.999 721.207,524.745 721.16,524.741 721.376,525.007 714.522,529.101 696.445,534.817 690.859,534.989 690.733,535.842 702.121,552.051 711.827,567.863 "/>
</g>
<g id="Курортный район">
   <polygon id="_127267312" points="45.2128,123.127 47.9319,120.663 52.2394,118.392 58.756,115.821 62.9319,115.472 69.3432,115.28 73.2755,114.766 74.2594,113.95 81.3536,113.725 82.7024,112.982 84.2541,112.601 82.3796,108.317 79.274,105.082 82.6384,100.682 77.98,96.6706 75.2626,91.624 74.4862,91.624 73.5804,92.0122 73.1922,91.8828 72.804,92.7886 72.4158,93.3062 71.3806,93.0474 70.863,94.0826 69.9572,93.0474 68.5338,94.0826 67.711,94.311 67.4541,93.7961 67.1604,93.7961 67.0869,93.3547 66.4995,93.2444 66.1691,94.1639 65.7285,94.0536 65.1779,93.4651 65.2146,93.2444 65.6551,93.2076 65.3247,92.803 65.3247,92.3616 64.517,91.8835 64.6639,91.4053 63.5625,91.0743 63.3789,90.7433 62.6079,90.8536 61.9471,90.964 61.6901,90.3755 61.066,90.4858 60.7723,89.8973 60.8824,89.4927 60.5887,89.2352 60.1482,89.3456 59.6709,88.941 59.1202,88.6467 58.3859,88.4261 57.6884,88.4261 57.7251,87.764 57.358,87.9479 57.3213,87.3962 57.4314,87.0284 56.7706,86.9916 56.8807,86.5134 56.33,86.5502 56.2199,86.1456 56.5503,85.7778 56.4401,85.2261 56.1464,84.4537 55.5957,84.0859 55.816,83.6077 54.9716,83.9388 54.6779,83.9388 54.7881,83.2031 54.6779,82.7618 54.2007,82.9089 53.9437,82.4675 53.2828,82.0997 52.7321,82.1365 52.4751,82.1733 52.3283,81.9526 51.7776,81.8055 51.1535,81.2905 50.6028,81.2905 49.6849,81.6951 48.9874,81.3273 48.3266,81.9158 47.7759,81.548 47.5556,81.9158 47.0416,81.9894 46.4542,81.6951 46.4175,80.8859 46.2706,80.2607 45.7567,80.4446 45.5364,80.0767 44.9123,80.04 44.8388,79.0469 44.5818,78.6423 44.3983,78.3113 44.2514,77.3182 43.664,76.8768 43.1867,76.4354 42.893,77.2078 42.5993,76.2883 42.6728,75.5895 43.2602,75.0377 42.893,74.7067 42.0119,74.5596 41.6815,74.2286 41.6815,73.7872 41.2777,73.6401 40.8611,73.4793 40.5287,73.8086 20.4112,92.0445 20.9776,94.0718 29.353,96.0407 32.5606,96.0407 37.1583,97.7423 38.9758,100.941 38.6194,102.189 40.8831,103.721 44.2327,103.971 44.9723,105.628 51.4498,103.971 52.5545,107.998 53.3303,108.426 51.3607,109.673 46.2733,109.575 40.6687,109.584 28.8768,115.185 29.9072,116.681 30.0424,117.797 31.0902,117.729 31.3944,118.338 30.8874,118.405 30.9888,119.723 31.6986,119.926 31.5634,118.878 32.1042,118.878 32.307,119.69 32.814,120.332 33.3886,120.568 33.7942,120.332 33.8618,119.825 34.335,119.994 34.7744,119.825 35.0786,119.926 35.18,121.65 35.518,121.92 35.9574,121.616 36.2954,121.447 36.7686,122.056 36.6672,123.239 35.856,123.34 36.0588,123.948 36.5658,123.948 36.7686,123.543 37.5798,123.374 38.1882,122.664 38.7966,122.63 39.2022,123.036 39.6416,123.103 40.419,122.461 40.926,122.461 41.3992,123.306 42.278,123.306 44.4412,123.036 "/>
   <polygon id="_125629352" points="64.6451,51.247 65.8,52.266 75.194,55.682 83.124,56.17 87.028,69.102 88.98,70.932 89.468,71.542 99.716,66.784 99.622,68.066 100.081,68.606 100.189,69.47 100.783,69.794 101.647,69.335 102.511,69.632 103.294,69.038 103.483,67.904 104.428,67.202 105.562,68.066 105.562,69.173 105.4,69.794 105.022,70.604 105.778,71.306 106.426,72.575 106.21,73.331 106.723,74.114 107.965,73.952 109.261,75.599 109.504,76.517 108.937,77.219 108.775,77.894 109.423,77.975 110.071,78.677 109.666,79.109 108.208,79.055 107.371,80.135 107.128,80.918 107.614,81.917 108.478,82.754 109.207,82.835 110.422,83.834 111.421,84.914 111.421,85.562 111.259,86.048 112.15,86.831 112.744,87.803 112.474,89.045 111.475,90.044 110.719,91.07 110.017,91.583 109.315,91.583 108.667,90.989 108.127,90.368 106.588,90.665 105.589,91.259 105.184,92.852 105.562,95.12 105.703,96.2028 107.226,95.9516 107.945,95.1436 109.187,95.3279 110.455,94.2956 114.438,94.7613 117.584,95.2197 120.161,95.6935 121.501,94.3171 123.974,93.2448 132.451,91.8653 140.525,92.3876 141.671,91.9667 145.128,92.4998 145.206,92.5125 145.082,92.2652 144.015,91.6556 143.355,91.0968 143.355,90.1316 142.898,89.776 142.694,89.1664 142.237,89.1156 141.577,88.6584 141.526,87.9472 141.424,87.1344 140.866,86.982 140.967,86.0168 140.713,85.5596 140.764,84.7468 140.764,84.0356 140.612,83.2228 141.221,82.918 142.136,82.7656 142.39,81.5972 142.034,81.1908 142.186,80.5812 142.339,80.124 141.577,80.124 139.85,78.6508 138.529,78.6 135.227,78.346 131.518,77.584 129.851,75.306 129.03,74.3604 128.226,74.7048 127.251,74.4752 126.16,74.9344 124.955,75.164 127.136,73.3846 128.341,67.128 132.241,60.8576 135.92,57.1881 114.95,49.0431 105.839,50.4583 104.144,54.7022 95.2364,49.805 94.3036,47.457 94.3036,39.9483 95.0032,39.7934 94.8946,36.5749 94.0704,35.0974 93.7005,35.8973 91.0548,36.0302 90.681,39.2024 87.8683,41.7819 82.4104,44.4111 75.1492,51.9661 74.7898,51.5995 74.4305,51.3379 73.2328,51.225 72.909,50.4684 72.2742,50.1165 72.344,49.2766 71.6352,48.5767 71.7608,47.7842 71.1546,47.175 70.9709,46.4078 70.3969,46.3469 70.3,47.3821 69.7393,47.3644 "/>
   <polygon id="_127241656" points="331.138,103.037 332.483,102.871 334.116,103.439 335.532,102.903 337.954,103.088 339.497,103.53 340.692,103.088 341.234,103.306 341.213,103.974 341.743,103.559 342.178,103.931 341.795,104.5 341.919,105.609 342.81,105.59 343.647,106.269 343.43,105.42 344.751,105.42 345.234,106.372 345.803,106.543 346.141,107.559 351.359,106.675 356.551,106.079 362.026,106.488 362.751,111.05 361.368,115.239 370.307,119.202 370.556,120.431 384.728,126.807 374.004,150.185 374.8,152.472 367.744,160.816 366.736,161.376 366.232,161.32 365.952,161.797 365.224,161.824 365.112,162.216 364.55,162.584 364.608,163.392 364.008,164.264 364.272,164.456 364.384,165.352 364.608,165.576 364.608,166.696 365.168,167.312 365.168,167.872 365.672,168.656 365.28,169.16 365.17,169.816 364.496,170 364.375,170.29 362.943,170.083 358.31,166.43 357.146,166.218 353.6,162.181 349.01,159.514 345.815,156.97 339.805,154.057 338.708,153.989 337.359,153.055 334.106,153.234 326.277,154.11 325.548,153.908 320.424,151.304 318.802,150.481 317.662,150.447 314.206,147.897 310.064,146.367 309.056,147.602 308.141,147.034 309.127,146.115 306.514,144.314 305.142,143.199 306.199,141.26 318.089,139.12 329.385,113.438 326.888,111.892 "/>
   <polygon id="_126756016" points="40.8612,73.4792 40.8611,73.4793 "/>
   <polygon id="_126796728" points="64.6451,51.247 65.8,52.266 75.194,55.682 83.124,56.17 87.028,69.102 88.98,70.932 89.468,71.542 99.716,66.784 99.622,68.066 100.081,68.606 100.189,69.47 100.783,69.794 101.647,69.335 102.511,69.632 103.294,69.038 103.483,67.904 104.428,67.202 105.562,68.066 105.562,69.173 105.4,69.794 105.022,70.604 105.778,71.306 106.426,72.575 106.21,73.331 106.723,74.114 107.965,73.952 109.261,75.599 109.504,76.517 108.937,77.219 108.775,77.894 109.423,77.975 110.071,78.677 109.666,79.109 108.208,79.055 107.371,80.135 107.128,80.918 107.614,81.917 108.478,82.754 109.207,82.835 110.422,83.834 111.421,84.914 111.421,85.562 111.259,86.048 112.15,86.831 112.744,87.803 112.474,89.045 111.475,90.044 110.719,91.07 110.017,91.583 109.315,91.583 108.667,90.989 108.127,90.368 106.588,90.665 105.589,91.259 105.184,92.852 105.562,95.12 105.703,96.2028 103.65,96.5415 102.455,96.5231 100.722,98.1545 100.172,99.5156 98.5161,99.4142 96.4299,100.579 95.3177,102.751 93.7723,109.049 92.5249,110.118 86.6351,111.077 85.3078,112.524 85.2064,112.368 84.2541,112.601 82.3796,108.317 79.274,105.082 82.6384,100.682 77.98,96.6706 75.2626,91.624 74.4862,91.624 73.5804,92.0122 73.1922,91.8828 72.804,92.7886 72.4158,93.3062 71.3806,93.0474 70.863,94.0826 69.9572,93.0474 68.5338,94.0826 67.711,94.311 67.4541,93.7961 67.1604,93.7961 67.0869,93.3547 66.4995,93.2444 66.1691,94.1639 65.7285,94.0536 65.1779,93.4651 65.2146,93.2444 65.6551,93.2076 65.3247,92.803 65.3247,92.3616 64.517,91.8835 64.6639,91.4053 63.5625,91.0743 63.3789,90.7433 62.6079,90.8536 61.9471,90.964 61.6901,90.3755 61.066,90.4858 60.7723,89.8973 60.8824,89.4927 60.5887,89.2352 60.1482,89.3456 59.6709,88.941 59.1202,88.6467 58.3859,88.4261 57.6884,88.4261 57.7251,87.764 57.358,87.9479 57.3213,87.3962 57.4314,87.0284 56.7706,86.9916 56.8807,86.5134 56.33,86.5502 56.2199,86.1456 56.5503,85.7778 56.4401,85.2261 56.1464,84.4537 55.5957,84.0859 55.816,83.6077 54.9716,83.9388 54.6779,83.9388 54.7881,83.2031 54.6779,82.7618 54.2007,82.9089 53.9437,82.4675 53.2828,82.0997 52.7321,82.1365 52.4751,82.1733 52.3283,81.9526 51.7776,81.8055 51.1535,81.2905 50.6028,81.2905 49.6849,81.6951 48.9874,81.3273 48.3266,81.9158 47.7759,81.548 47.5556,81.9158 47.0416,81.9894 46.4542,81.6951 46.4175,80.8859 46.2706,80.2607 45.7567,80.4446 45.5364,80.0767 44.9123,80.04 44.8388,79.0469 44.5818,78.6423 44.3983,78.3113 44.2514,77.3182 43.664,76.8768 43.1867,76.4354 42.893,77.2078 42.5993,76.2883 42.6728,75.5895 43.2602,75.0377 42.893,74.7067 42.0119,74.5596 41.6815,74.2286 41.6815,73.7872 41.2777,73.6401 40.8612,73.4792 58.8269,55.6813 "/>
   <polygon id="_127023856" points="331.138,103.037 326.888,111.892 329.385,113.438 318.089,139.12 306.199,141.26 305.142,143.199 301.157,140.621 298.023,137.85 297.236,137.83 295.12,136.467 290.37,132.695 285.97,130.178 282.612,129.705 280.259,128.028 273.933,124.998 267.606,122.86 265.62,122.713 272.773,106.959 270.906,105.97 281.904,82.8014 282.109,82.3928 282.109,81.9842 282.449,81.9161 282.79,80.4179 283.13,80.2817 283.13,79.9412 282.858,79.9412 282.177,79.124 280.679,78.3068 280.679,77.3534 279.861,76.7405 279.589,75.5828 278.704,74.9018 278.295,74.9699 277.682,74.7656 276.729,75.038 276.048,75.038 275.843,74.5613 275.094,74.5613 275.026,74.0846 275.639,73.1993 275.503,72.5864 276.524,71.1563 279.385,66.1169 284.268,59.0142 284.237,58.9621 285.294,60.7494 285.364,62.3712 286.446,63.0351 289.538,63.0351 290.658,62.647 292.29,62.7716 294.98,64.4343 297.08,64.5506 297.966,65.3225 298.99,66.7585 298.742,67.9803 297.529,69.6287 297.825,71.2434 299.115,72.4328 299.8,73.3058 300.082,73.5383 300.572,73.7958 300.447,74.7077 301.423,76.4371 301.61,78.1382 300.855,80.5926 301.044,81.9142 303.026,84.7462 304.82,86.2566 306.678,86.2887 307.716,85.5316 309.319,85.626 312.466,88.4278 313.41,88.4278 313.694,89.9382 315.11,93.2422 317.092,93.7142 318.886,93.3366 320.207,92.487 323.387,92.8004 325.494,93.6198 326.126,96.2328 328.386,98.0264 330.372,99.3763 330.248,101.017 330.906,102.933 "/>
   <polygon id="_127010016" points="284.268,59.0142 279.385,66.1169 276.524,71.1563 275.503,72.5864 275.639,73.1993 275.026,74.0846 275.094,74.5613 275.843,74.5613 276.048,75.038 276.729,75.038 277.682,74.7656 278.295,74.9699 278.704,74.9018 279.589,75.5828 279.861,76.7405 280.679,77.3534 280.679,78.3068 282.177,79.124 282.858,79.9412 283.13,79.9412 283.13,80.2817 282.79,80.4179 282.449,81.9161 282.109,81.9842 282.109,82.3928 281.904,82.8014 270.906,105.97 272.773,106.959 265.62,122.713 265.201,122.682 261.809,121.851 257.271,120.187 255.71,120.119 252.837,119.041 250.054,118.405 247.113,116.801 244.619,116.356 240.075,114.93 238.471,113.861 236.6,113.861 235.887,113.148 231.164,112.702 227.008,111.701 223.597,110.721 221.898,110.742 221.161,110.3 221.156,111.176 221.542,111.212 221.609,111.922 220.331,111.799 216.998,110.297 215.468,110.301 214.959,109.922 214.184,110.128 212.822,109.876 210.1,108.966 202.944,106.22 200.496,106.432 198.597,105.731 194.83,105.719 194.901,106.942 193.955,106.975 193.832,105.753 187.389,104.984 183.496,104.06 180.378,102.723 176.193,102.723 177.867,97.5303 175.452,95.2718 172.7,71.5548 178.541,70.5118 186.051,75.9354 189.749,68.1226 191,66.719 188.137,65.164 187.966,65.5812 184.382,63.8176 201.917,34.7477 204.125,36.1548 208.338,36.7761 209.1,35.9376 210.204,35.813 211.34,36.6835 212.536,35.9376 220.465,37.1036 222.035,39.0938 221.538,41.1926 223.03,41.0057 227.694,47.2558 227.756,48.7013 232.515,53.2104 237.852,54.5679 238.636,51.2091 235.156,47.457 234.907,45.5148 234.613,44.6123 237.068,42.8873 234.69,39.2184 234.736,37.4917 234.208,34.5224 232.125,33.8388 234.378,31.9109 238.375,32.0978 240.038,31.4622 241.672,31.6314 252.742,34.1949 258.446,32.1441 268.55,40.3221 274.135,45.2513 275.95,46.307 275.436,48.9528 275.812,50.6612 278.5,54.9194 279.231,56.0854 282.138,58.3711 284.237,58.9621 "/>
   <polygon id="_125412704" points="135.92,57.1881 132.241,60.8576 128.341,67.128 127.136,73.3846 124.955,75.164 126.16,74.9344 127.251,74.4752 128.226,74.7048 129.03,74.3604 129.851,75.306 131.518,77.584 135.227,78.346 138.529,78.6 139.85,78.6508 141.577,80.124 142.339,80.124 142.186,80.5812 142.034,81.1908 142.39,81.5972 142.136,82.7656 141.221,82.918 140.612,83.2228 140.764,84.0356 140.764,84.7468 140.713,85.5596 140.967,86.0168 140.866,86.982 141.424,87.1344 141.526,87.9472 141.577,88.6584 142.237,89.1156 142.694,89.1664 142.898,89.776 143.355,90.1316 143.355,91.0968 144.015,91.6556 145.082,92.2652 145.206,92.5125 153.368,94.4062 155.634,94.7397 156.357,95.3734 158.422,95.8625 161.934,95.9516 169.268,101.196 172.116,102.142 175.412,102.066 176.193,102.723 177.867,97.5303 175.452,95.2718 172.7,71.5548 178.541,70.5118 186.051,75.9354 189.749,68.1226 191,66.719 188.137,65.164 187.966,65.5812 184.382,63.8176 201.918,34.7474 200.456,33.7765 195.434,31.6314 188.192,28.849 187.03,28.6506 185.376,26.9834 184.074,27.5612 181.402,29.8862 180.013,31.5691 183.245,34.6933 182.908,35.1738 181.216,35.4381 180.62,34.7556 179.346,36.021 177.401,40.0106 176.034,40.1352 169.613,35.3854 168.461,33.9314 167.062,33.9314 165.942,37.5237 162.46,37.4614 161.901,39.1241 160.378,38.8286 156.598,42.3266 153.18,38.193 151.64,38.7217 151.608,40.8508 148.655,45.2033 145.857,45.0164 142.95,47.0529 140.664,52.8989 139.466,54.7645 136.046,57.2371 "/>
   <polygon id="_126736176" points="410.241,136.24 410.121,136.225 "/>
   <polygon id="_127167640" points="410.371,136.254 410.246,136.241 "/>
   <polygon id="_126225424" points="410.607,136.265 410.494,136.262 "/>
   <polygon id="_126234256" points="410.737,136.26 410.64,136.265 "/>
   <polygon id="_127234336" points="410.856,136.246 410.777,136.256 "/>
   <polygon id="_127339720" points="411.015,136.211 410.968,136.223 "/>
   <polygon id="_127167752" points="422.58,143.546 422.522,143.56 "/>
   <polygon id="_126364640" points="422.645,143.527 422.584,143.545 "/>
   <polygon id="_126406624" points="422.71,143.506 422.648,143.527 "/>
   <polygon id="_125654656" points="384.728,126.807 374.004,150.185 374.8,152.472 367.744,160.816 366.736,161.376 366.232,161.32 365.952,161.797 365.224,161.824 365.112,162.216 364.55,162.584 364.608,163.392 364.008,164.264 364.272,164.456 364.384,165.352 364.608,165.576 364.608,166.696 365.168,167.312 365.168,167.872 365.672,168.656 365.28,169.16 365.17,169.816 364.496,170 364.368,170.277 365.684,170.885 369.626,172.132 371.694,173.757 377.645,176.943 379.516,178.369 382.453,182.246 384.693,186.723 387.357,194.674 388.835,201.557 390.03,207.148 390.564,207.95 390.497,210.089 390.549,208.444 393.497,208.866 396.881,206.835 395.697,202.605 397.727,201.421 398.235,198.206 405.68,186.193 411.602,189.746 414.375,190.853 420.402,193.572 424.664,197.394 427.007,199.859 427.84,196.945 428.432,192.206 427.84,189.689 421.027,177.544 418.213,167.177 417.177,152.664 414.511,142.741 411.697,139.779 409.849,136.186 410.107,136.223 409.034,136.164 408.619,136.616 409.257,137.168 408.82,137.827 407.844,137.992 407.18,136.855 406.642,136.775 406.704,137.604 405.924,137.076 406.3,136.849 405.926,135.22 403.317,135.158 401.391,133.173 396.766,130.813 393.462,127.415 391.196,127.604 389.402,126.471 385.849,125.055 384.748,126.816 "/>
   <polygon id="_125133744" points="485.69,258.102 485.687,258.097 496.703,246.923 498.903,241.733 500.417,241.986 501.71,242.173 502.583,241.922 502.842,242.565 503.439,242.662 504.219,243.214 505.571,242.332 508.092,243.874 512.183,244.314 515.24,243.623 514.481,243.021 515.047,241.514 514.071,240.293 514.388,238.618 513.569,236.919 514.009,236.258 514.26,235.188 515.706,234.057 516.246,234.489 516.569,233.864 517.911,233.671 518.258,232.765 519.108,233.143 522.722,235.409 525.839,233.143 526.688,233.9 528.418,232.765 533.075,236.447 536.004,233.709 536.914,227.322 536.442,226.441 536.855,225.308 552.305,231.476 562.277,235.943 564.764,230.908 564.509,230.375 565.553,228.172 571.406,230.594 574.045,230.877 575.055,226.941 581.033,222.381 574.204,219.266 562.626,215.554 559.288,215.649 551.485,208.977 544.311,204.351 496.83,183.583 480.12,198.883 480.184,199 483.704,220.12 484.76,230.856 480.712,232.968 479.48,234.2 476.84,234.2 475.432,234.904 474.552,237.896 473.144,237.896 472.968,240.36 471.912,241.944 471.208,243.528 471.279,245.435 471.778,245.584 473.02,246.785 472.977,247.857 472.506,251.288 481.068,254.376 482.995,256.435 484.879,258.065 "/>
   <polygon id="_20334912" points="427.007,199.859 427.84,196.945 428.432,192.206 427.84,189.689 421.027,177.544 418.213,167.177 417.177,152.664 414.511,142.741 411.697,139.779 409.849,136.186 411.145,136.164 410.99,135.314 411.43,134.684 412,135.216 411.747,136.098 412.974,137.136 412.783,138.084 413.977,137.546 414.105,138.458 414.42,139.343 415.351,138.939 415.832,139.525 416.967,140.034 416.28,140.759 416.653,141.116 417.435,140.761 417.349,141.598 418.086,141.621 418.191,141.107 418.666,140.725 418.879,141.559 419.386,141.575 419.988,140.852 420.33,141.608 421.089,141.858 420.526,142.866 422.255,143.591 424.519,142.832 425.093,143.846 424.54,144.473 424.863,144.907 425.432,144.451 425.777,144.875 424.863,145.98 425.775,146.552 426.251,147.285 427.032,146.516 427.314,147.353 427.257,148.645 426.534,148.685 425.682,148.78 425.271,150.039 426.118,150.45 426.747,149.822 427.631,150.258 428.121,149.262 428.697,149.657 428.137,150.543 427.257,151.359 427.785,152.053 428.684,151.685 429.081,152.27 428.293,152.746 428.231,153.375 429.428,153.658 429.458,154.697 430.717,155.357 430.619,156.207 431.473,156.235 432.388,156.583 432.57,157.215 433.582,156.96 434.305,157.338 434.242,158.095 436.193,158.693 436.82,159.983 437.543,159.921 437.452,159.039 438.675,159.889 439.274,158.567 436.916,156.267 439.716,153.216 442.453,154.602 443.616,154.789 444.371,155.735 443.301,158.316 445.189,162.405 446.667,164.042 446.701,167.505 451.48,170.68 452.994,173.924 450.037,185.348 479.992,199 480.12,198.883 480.184,199 483.704,220.12 484.76,230.856 480.712,232.968 479.48,234.2 476.84,234.2 475.432,234.904 474.552,237.896 473.144,237.896 472.968,240.36 471.912,241.944 471.208,243.528 471.279,245.435 470.055,245.614 469.281,247.55 468.894,248.905 468.119,251.034 466.57,252.68 465.99,254.035 464.538,255.971 464.247,257.423 464.538,257.52 465.022,256.939 465.409,257.326 464.828,258.391 462.698,259.069 461.44,260.521 459.891,260.327 458.536,260.424 455.342,258.198 452.244,255.1 451.857,255.487 451.082,255.487 450.211,255.778 448.953,255.39 448.082,257.133 447.21,257.52 442.854,255.778 440.338,253.938 439.37,253.164 437.918,251.034 436.853,248.808 436.659,247.259 434.82,244.355 434.046,243.484 432.497,239.902 431.335,238.45 429.496,237.676 428.625,237.676 428.178,237.212 427.872,237.239 427.956,237.49 427.623,237.656 426.874,236.295 426.652,235.906 426.319,236.239 426.014,235.461 425.709,235.378 425.404,235.406 425.349,234.85 425.099,234.628 425.099,234.211 424.517,234.294 424.239,233.822 423.962,233.822 423.962,233.627 424.212,233.572 424.239,233.266 423.906,233.099 423.962,232.627 423.574,232.627 423.491,233.099 423.047,232.794 422.908,232.544 423.13,232.377 423.13,231.905 422.437,231.71 421.91,231.043 421.597,230.712 421.194,231.277 421.581,232.133 420.63,233.022 420.71,233.7 420.807,234.25 420.484,234.088 420.113,233.781 419.872,233.733 419.404,232.117 419.63,229.968 420.307,227.965 421.171,226.157 422.333,224.414 422.623,223.737 421.655,223.834 420.784,223.737 420.3,222.962 419.332,221.801 419.235,220.93 420.59,218.316 421.558,217.445 423.107,215.799 425.106,214.447 425.693,212.683 426.87,211.212 427.09,210.257 426.502,209.522 427.384,208.861 428.413,208.861 428.56,207.979 427.457,207.832 426.575,207.611 426.428,206.582 427.164,205.774 428.854,205.332 429.515,205.112 429.075,203.274 428.928,201.878 "/>
   <polygon id="_125599208" points="390.549,208.444 393.497,208.866 396.881,206.835 395.697,202.605 397.727,201.421 398.235,198.206 405.68,186.193 411.602,189.746 414.375,190.853 420.402,193.572 424.664,197.394 428.928,201.878 429.075,203.274 429.515,205.112 428.854,205.332 427.164,205.774 426.428,206.582 426.575,207.611 427.457,207.832 428.56,207.979 428.413,208.861 427.384,208.861 426.502,209.522 427.09,210.257 426.87,211.212 425.693,212.683 425.106,214.447 423.107,215.799 421.558,217.445 420.59,218.316 419.235,220.93 419.332,221.801 420.3,222.962 420.784,223.737 421.655,223.834 422.623,223.737 422.333,224.414 421.171,226.157 420.307,227.965 419.63,229.968 419.404,232.117 419.872,233.733 420.113,233.781 420.484,234.088 420.807,234.25 420.71,233.7 420.63,233.022 421.581,232.133 421.194,231.277 421.597,230.712 421.91,231.043 422.437,231.71 423.13,231.905 423.13,232.377 422.908,232.544 423.047,232.794 423.491,233.099 423.574,232.627 423.962,232.627 423.906,233.099 424.239,233.266 424.212,233.572 423.962,233.627 423.962,233.822 424.239,233.822 424.517,234.294 425.099,234.211 425.099,234.628 425.349,234.85 425.404,235.406 425.709,235.378 426.014,235.461 426.319,236.239 426.652,235.906 426.874,236.295 427.623,237.656 427.956,237.49 427.872,237.239 428.178,237.212 428.625,237.676 429.496,237.676 431.335,238.45 432.497,239.902 434.046,243.484 434.82,244.355 436.659,247.259 436.853,248.808 437.918,251.034 439.37,253.164 440.338,253.938 442.854,255.778 447.21,257.52 448.082,257.133 448.953,255.39 450.211,255.778 451.082,255.487 451.857,255.487 452.244,255.1 455.342,258.198 458.536,260.424 459.891,260.327 461.44,260.521 462.698,259.069 464.828,258.391 465.409,257.326 465.022,256.939 464.538,257.52 464.247,257.423 464.538,255.971 465.99,254.035 466.57,252.68 468.119,251.034 468.894,248.905 469.281,247.55 470.055,245.614 471.778,245.584 473.02,246.785 472.977,247.857 472.506,251.288 481.068,254.376 482.995,256.435 484.879,258.065 485.69,258.102 487.862,261.276 489.81,266.812 496.133,271.847 502.426,275.119 508.061,281.132 514.667,293.969 517.686,295.353 520.426,299.129 525.032,303.282 525.119,307.632 530.091,311.472 531.663,313.666 530.696,317.057 530.224,319.157 531.365,321.588 529.571,323.389 528.816,326.984 529.114,330.658 528.502,331.406 528.762,332.814 532.686,334.253 534.039,336.457 531.852,338.305 531.671,341.609 533.378,343.734 534.495,347.367 537.909,349.602 538.366,350.742 517.368,351.86 509.306,355.179 487.948,359.404 485.234,394.521 480.215,396.345 470.773,392.86 465.974,391.822 458.786,388.903 462.381,382.917 450.895,376.521 451.163,375.781 448.686,374.248 449.638,371.709 444.292,368.241 442.287,371.851 435.204,367.931 424.333,352.332 415.334,344.808 413.461,340.798 412.394,332.245 411.636,331.579 409.944,332.243 408.788,332.556 407.85,331.486 406.965,331.666 405.799,331.041 404.82,331.532 404.552,330.285 404.108,329.661 404.152,328.458 403.037,327.923 403.573,326.453 402.593,325.473 402.682,324.582 404.149,323.155 404.329,322.041 405.444,321.285 407.087,321.375 407.321,320.757 406.76,320.121 407.141,318.962 407.934,318.659 407.622,317.991 407.139,318.415 406.733,318.121 406.844,317.565 406.285,317.411 404.108,317.721 403.973,315.367 404.329,313.622 403.479,310.72 403.528,309.212 402.326,307.386 402.011,306.273 399.653,302.931 398.092,302.174 396.8,302.35 396.042,301.149 395.287,301.149 394.93,300.169 393.686,298.524 391.099,297.717 387.801,295.446 386.018,295.131 384.773,293.754 384.773,292.952 385.664,291.882 386.644,292.061 387.395,291.526 389.536,291.703 390.428,290.947 391.634,291.168 393.28,290.365 393.505,289.388 394.307,289.393 394.662,290.009 396.889,289.384 395.643,288.853 398.131,288.453 398.873,288.599 398.812,287.864 399.471,286.717 397.336,286.536 398.133,285.826 398.313,284.757 396.267,282.931 393.726,283.151 393.416,282.438 391.723,282.883 391.366,282.26 391.584,281.549 390.743,281.369 389.933,280.749 387.982,281.28 387.713,280.257 389.669,277.894 388.782,277.448 389.406,276.201 389.05,275.129 389.941,274.596 389.317,274.15 389.672,273.347 388.45,273.753 387.863,273.373 387.304,273.537 386.77,272.787 387.255,272.333 384.788,272.459 383.221,273.728 382.545,273.113 381.298,272.191 381.799,271.426 380.81,270.588 381.049,268.262 376.877,266.366 373.804,264.409 374.772,261.389 382.011,259.539 383.971,258.203 387.664,256.86 389.136,255.02 389.339,253.825 392.479,249.471 392.558,248.162 393.066,246.601 393.695,244.669 394.26,241.556 394.022,240.829 394.356,240.177 394.986,229.334 394.217,222.028 392.97,221.497 392.238,218.11 391.65,215.274 391.188,211.693 390.497,210.089 "/>
</g>
<g id="Кировский район">
   <polygon id="_125191344" points="544.928,565.793 544.817,565.837 489.426,540.679 489.363,541.7 493.392,548.634 498.833,551.295 501.984,550.709 543.387,569.357 549.392,577.312 553.688,581.775 566.228,596.663 567.264,596.19 568.921,596.811 587.551,604.094 594.949,605.081 594.798,605.061 594.915,604.918 595.789,603.85 612.49,605.113 612.028,607.385 612.035,607.374 621.663,613.381 622.803,613.07 624.566,607.677 622.907,606.536 623.629,605.861 625.707,605.914 626.018,606.49 626.64,607.055 626.747,607.935 627.262,609.025 628.714,610.995 630.892,612.966 632.243,613.897 633.518,613.411 633.391,612.429 636.207,587.88 641.069,579.411 637.285,579.435 637.221,579.443 632.621,580.071 626.836,580.071 616.938,575.192 611.072,585.775 608.946,584.526 607.924,585.217 607.877,586.901 600.013,586.285 585.291,577.137 584,571.421 571.301,564.632 558.245,567.987 554.463,569.116 545.036,567.236 "/>
   <polygon id="_125816280" points="544.928,565.793 556.55,561.192 571.482,551.122 573.845,539.472 574.653,537.273 579.844,527.32 601.104,528.25 617.655,524.986 618.663,524.539 615.568,529.993 615.681,533.786 614.149,539.33 609.561,547.667 606.795,550.634 606.818,550.654 604.775,551.708 601.193,556.507 599.895,561.299 598.889,566.998 597.358,570.427 596.313,571.642 595.148,572.488 591.352,574.037 589.404,575.218 584,571.423 584,571.421 571.301,564.632 558.245,567.987 554.463,569.116 545.036,567.236 "/>
   <polygon id="_125801088" points="606.818,550.654 604.775,551.708 601.193,556.507 599.895,561.299 598.889,566.998 597.358,570.427 596.313,571.642 595.148,572.488 591.352,574.037 589.404,575.218 583.998,571.421 585.291,577.137 600.013,586.285 607.877,586.901 607.924,585.217 608.946,584.526 611.072,585.775 616.938,575.192 626.836,580.071 632.621,580.071 637.221,579.443 637.284,579.435 637.245,579.435 640.386,559.518 641.602,552.319 639.839,549.45 632.068,547.967 629.489,547.608 624.088,550.59 622.779,550.443 619.965,549.249 617.956,549.876 615.147,552.713 610.646,551.739 608.603,552.285 "/>
   <polygon id="_127263992" points="612.035,607.374 621.663,613.381 622.803,613.07 624.566,607.677 622.907,606.536 623.629,605.861 625.707,605.914 626.018,606.49 626.64,607.055 626.747,607.935 627.262,609.025 628.714,610.995 630.892,612.966 632.551,614.003 633.597,614.21 628.481,634.988 617.45,647.156 615.645,647.951 602.31,633.963 607.36,629.65 608.096,614.922 605.872,613.231 611.519,608.026 "/>
   <polygon id="_125570880" points="605.871,613.231 608.096,614.922 607.36,629.65 602.31,633.963 615.645,647.951 603.558,653.273 593.811,640.089 581.923,647.16 577.727,637.758 575.085,640.089 571.744,635.816 571.387,635.392 574.433,631.264 586.078,627.834 "/>
   <polygon id="_125459248" points="595.789,603.85 612.49,605.113 611.519,608.026 586.078,627.834 574.433,631.264 577.35,627.313 594.949,605.081 594.798,605.061 594.915,604.918 "/>
   <polygon id="_125741184" points="571.387,635.392 571.744,635.816 575.085,640.089 577.727,637.758 581.923,647.16 593.811,640.089 603.558,653.273 591.26,658.688 552.696,663.218 558.83,652.405 "/>
</g>
<g id="Петроградский район">
   <polygon id="_126304808" points="649.78,451.712 652.668,451.332 649.628,442.744 649.02,441.072 648.412,439.704 656.953,435.282 655.195,434.607 649.366,432.447 644.636,431.457 637.274,431.752 630.309,432.994 626.127,432.767 617.963,430.9 610.595,430.968 601.254,432.214 594.819,434.772 590.719,434.88 587.542,433.479 586.142,434.172 583.682,437.553 582.266,440.677 581.731,444.834 582.727,447.991 593.372,453.501 594.769,454.334 599.58,454.118 602.979,454.997 611.476,456.403 619.68,457.575 627.179,457.265 627.628,458.445 629.286,459.991 627.909,461.227 627.375,461.227 625.54,462.832 629.195,466.376 632.107,471.275 636.341,474.114 638.968,470.892 636.116,468.404 644.542,458.101 "/>
   <polygon id="_127446312" points="644.542,458.101 636.116,468.404 638.968,470.892 636.341,474.114 632.107,471.275 629.195,466.376 625.54,462.832 627.375,461.227 627.909,461.227 629.286,459.991 627.628,458.445 627.179,457.265 619.68,457.575 611.476,456.403 602.979,454.997 599.58,454.118 594.769,454.334 597.227,457.204 607.274,464.993 618.028,468.19 619.926,469.142 635.502,480.826 638.988,475.956 645.448,468.736 645.448,468.736 650.493,463.06 "/>
   <polygon id="_125472696" points="673.625,456.293 673.6,456.042 "/>
   <polygon id="_127272320" points="656.953,435.282 648.412,439.704 649.02,441.072 649.628,442.744 652.668,451.332 649.78,451.712 644.536,458.096 650.493,463.06 655.784,457.108 657.649,461.62 664.828,459.54 669.464,456.956 673.556,455.649 673.597,456.019 665.295,439.551 663.939,438.251 663.918,438.269 659.756,436.359 "/>
   <polygon id="_127012264" points="657.649,461.62 664.828,459.54 669.464,456.956 673.556,455.649 673.694,457.145 674.441,468.752 676.015,473.217 677.195,475.803 677.675,476.665 673.615,478.009 667.318,481.63 666.208,482.318 "/>
   <polygon id="_125218016" points="666.208,482.318 655.784,457.108 645.448,468.736 646.74,469.876 647.424,469.192 650.008,468.736 651.072,471.168 652.592,472.232 650.464,476.488 651.604,481.58 653.204,485.847 655.044,487.841 660.593,485.803 "/>
   <polygon id="_124919744" points="638.988,475.956 635.502,480.826 635.672,480.928 642.382,484.749 652.124,485.761 653.204,485.847 651.604,481.58 650.464,476.488 652.592,472.232 651.072,471.168 650.008,468.736 647.424,469.192 646.74,469.876 645.448,468.736 "/>
</g>
<g id="Пушкинский район">
   <polygon id="_126803344" points="698.731,667.957 698.719,667.96 700.214,675.008 691.843,676.824 686.817,679.639 683.724,679.96 680.206,680.841 676.186,682.846 674.832,682.974 672.985,684.17 670.006,688.183 667.294,689.31 665.82,691.669 662.304,693.022 661.95,694.103 658.789,695.876 655.163,695.909 655.163,735.663 660.595,742.254 664.314,744.187 660.696,756.379 658.154,755.217 642.304,782.804 652.1,789.657 661.6,781.04 673.72,780.68 677.8,785.24 680.944,782.809 682.682,784.958 695,775.4 696.9,759.2 717.7,754.3 722.8,779 724.697,785.751 740.164,783.093 740.957,783.192 743.732,794.787 754.137,788.841 754.831,794.688 750.966,795.084 752.155,813.318 753.047,813.219 753.1,823.963 750.335,825.109 749.718,827.548 749.965,830.759 748.517,831.006 748.46,831.855 746.593,832.1 748.5,831.849 749.707,832.602 754.425,830.794 761.238,834.484 760.498,835.713 757.929,837.268 756.682,842.49 758.555,841.738 764.753,841.989 769.197,844.371 776.624,857.047 774.052,869.85 798.399,867.088 800.658,863.3 800.232,859.71 798.148,858.28 800.156,854.264 802.013,852.986 802.818,846.909 805.877,846.53 807.214,842.566 832.156,846.932 842.502,810.331 837.298,809.402 837.334,808.545 830.587,802.214 826.353,799.925 826.799,794.642 827.179,793.924 828.187,790.966 828.673,785.339 826.839,781.93 826.915,781.038 803.784,782.345 804.277,775.633 796.34,771.007 792.538,767.554 792.3,765.352 793.302,765.535 793.23,764.593 794.074,764.249 792.973,763.826 793.399,762.262 793.047,761.313 793.047,761.239 791.865,761.465 791.207,759.642 791.797,758.539 792.567,758.55 792.706,757.268 793.608,757.022 793.608,755.514 794.575,754.073 794.488,752.464 795.723,752.725 796.056,751.624 796.57,750.229 794.955,750.002 794.942,748.948 796.47,747.713 797.658,747.273 796.69,745.438 796.937,744.717 796.13,744.644 796.116,743.616 797.057,742.462 797.231,742.302 796.596,740.908 797.231,740.273 797.912,741.201 799.113,741.568 800.814,740.701 800.554,739.539 799.286,739.293 799.286,738.192 799.286,738.118 801.121,736.283 801.802,736.617 803.249,735.182 803.543,733.935 803.176,733.347 801.781,734.742 801.561,734.375 801.561,734.302 802.662,731.733 801.708,731.292 799.726,732.393 799.726,731.125 785.661,721.775 782.938,718.983 776.78,717.698 770.404,713.195 756.117,699.933 745.91,673.633 739.768,671.014 741.313,667.491 737.298,665.814 735.468,664.066 725.983,666.974 700.206,674.895 "/>
   <polygon id="_127272368" points="652.1,789.657 661.6,781.04 673.72,780.68 677.8,785.24 680.944,782.809 682.69,784.968 675.266,790.712 672.221,793.624 672.618,794.9 674.34,794.154 674.811,793.36 676.043,792.207 677.965,793.107 678.049,793.728 677.051,794.003 676.797,794.98 676.231,795.754 676.718,796.389 676.082,797.155 675.903,797.662 675.35,798.19 675.456,798.585 681.774,798.347 683.085,802.042 686.244,800.82 686.691,802.161 680.999,804.247 681.356,805.618 676.086,807.633 675.002,819.972 674.869,819.575 658.584,809.248 656.466,812.425 649.316,810.836 647.33,804.216 642.828,801.701 647.33,795.346 651.567,798.258 656.068,792.433 "/>
   <polygon id="_127272608" points="748.46,831.855 748.517,831.006 749.965,830.759 749.718,827.548 750.335,825.109 753.1,823.963 753.047,813.219 752.155,813.318 750.966,795.084 754.831,794.688 754.137,788.841 743.732,794.787 740.957,783.192 740.164,783.093 724.697,785.751 722.8,779 717.7,754.3 696.9,759.2 695,775.4 675.266,790.712 672.221,793.624 672.618,794.9 674.34,794.154 674.811,793.36 676.043,792.207 677.965,793.107 678.049,793.728 677.051,794.003 676.797,794.98 676.231,795.754 676.718,796.389 676.082,797.155 675.903,797.662 675.35,798.19 675.456,798.585 681.774,798.347 683.085,802.042 686.244,800.82 686.691,802.161 680.999,804.247 681.356,805.618 676.086,807.633 675.002,819.972 674.869,819.575 658.584,809.248 656.466,812.425 649.316,810.836 647.33,804.216 642.828,801.701 647.33,795.346 651.567,798.258 656.068,792.433 642.304,782.804 636.236,778.23 630.48,787.772 629.277,793.146 628.221,794.298 628.121,798.366 613.814,812.773 613.663,814.629 612.659,816.989 618.432,820.05 615.922,825.122 610.902,822.661 609.849,825.574 605.181,833.705 603.372,835.966 600.109,842.992 599.105,844.247 597.097,845.002 594.587,846.609 588.008,852.333 588.312,852.732 583.745,856.196 585.101,858.153 581.033,861.618 584.796,866.584 578.826,869.298 570.24,884.909 578.019,891.886 582.539,886.166 591.224,891.888 582.739,901.726 587.461,904.79 586.706,906.598 587.862,915.581 593.631,918.292 599.356,922.409 584.045,935.862 589.767,939.627 595.19,944.598 636.002,904.989 649.556,913.272 650.458,913.272 650.558,892.742 655.78,891.485 658.992,892.24 678.271,880.039 679.076,885.664 688.963,886.467 690.12,884.156 710.8,885.16 712.206,886.366 714.864,886.417 715.921,885.514 718.079,885.463 718.581,883.654 717.228,875.873 717.477,874.266 717.075,873.614 721.894,871.254 723.35,868.594 724.305,869.197 731.183,861.015 732.135,861.064 735.999,856.746 736.855,851.425 736.602,842.741 734.744,831.347 736.754,830.946 739.665,831.195 744.434,831.446 744.233,832.349 746.492,833.055 746.593,832.1 "/>
    <polygon id="_127292720" points="650.494,913.17 668.946,911.568 668.756,914.439 679.534,923.062 690.848,924.29 694.351,927.693 697.164,926.502 701.645,922.179 702.853,921.956 705.008,923.837 706.836,922.667 709.415,923.539 710.992,925.327 709.164,926.307 711.582,928.072 717.681,921.703 717.212,920.465 720.784,916.699 722.738,914.492 723.328,912.48 723.981,909.619 724.882,908.06 724.761,905.922 733.273,905.584 755.74,941.515 756.261,940.93 757.178,940.993 757.826,940.019 758.663,940.619 759.843,940.213 761.076,941.13 762.308,940.998 764.91,943.922 766.406,943.985 767.449,943.068 767.639,941.709 769.462,941.778 770.11,940.219 770.104,938.844 771.999,938.064 772.253,936.863 772.438,936.052 773.67,935.862 777.484,934.372 779.449,934.372 784.332,932.17 784.206,919.433 783.684,913.559 783.742,898.821 774.582,896.545 775.493,891.283 775.361,885.252 770.299,884.725 768.097,885.257 765.816,884.535 765.319,880.597 772.402,874.741 774.052,869.598 774.131,869.457 776.624,857.047 769.197,844.371 764.753,841.989 758.555,841.738 756.692,842.486 756.637,846.18 756.82,846.609 756.637,847.222 756.759,848.754 756.391,850.532 755.656,851.268 754.614,851.942 754.185,852.126 753.755,852.677 750.506,854.149 747.38,852.923 739.963,854.087 739.289,854.332 736.775,857.949 735.838,856.926 732.135,861.064 731.183,861.015 724.305,869.197 723.35,868.594 721.894,871.254 717.075,873.614 717.477,874.266 717.228,875.873 718.581,883.654 718.079,885.463 715.921,885.514 714.864,886.417 712.206,886.366 710.8,885.16 690.12,884.156 688.963,886.467 679.076,885.664 678.271,880.039 658.992,892.24 655.78,891.485 650.558,892.742 650.46,912.889 "/>
   <polygon id="_126313800" points="735.838,856.926 736.775,857.949 739.289,854.332 739.963,854.087 747.38,852.923 750.506,854.149 753.755,852.677 754.185,852.126 754.614,851.942 755.656,851.268 756.391,850.532 756.759,848.754 756.637,847.222 756.82,846.609 756.637,846.18 756.692,842.486 756.682,842.49 757.929,837.268 760.498,835.713 761.238,834.484 754.425,830.794 749.707,832.602 748.5,831.849 746.593,832.1 746.492,833.055 744.233,832.349 744.434,831.446 739.665,831.195 736.754,830.946 734.744,831.347 736.602,842.741 736.855,851.425 735.999,856.746 "/>
</g>
<g id="Фрунзенский район">
   <polygon id="_125395824" points="722.362,642.54 733.039,664.81 733.957,664.529 725.983,666.974 700.206,674.895 695.92,654.737 "/>
   <polygon id="_126318960" points="722.362,642.54 733.039,664.81 758.613,656.967 770.807,655.241 759.767,638.404 758.921,638.475 757.757,636.536 756.79,636.664 756.57,635.611 757.209,634.515 749.417,622.923 739.886,612.308 735.417,606.793 726.238,611.868 721.189,617.192 712.654,622.515 722.366,642.538 "/>
   <polygon id="_127167184" points="722.366,642.538 695.92,654.737 692.446,638.392 691.317,631.599 689.408,623.273 693.388,622.574 700.163,620.692 709.969,616.77 712.652,622.516 712.654,622.515 "/>
   <polygon id="_127166744" points="689.408,623.273 693.388,622.574 700.163,620.692 709.969,616.77 701.329,598.267 694.167,603.332 690.251,591.804 682.88,594.807 "/>
   <polygon id="_127001224" points="701.329,598.267 712.652,622.516 721.189,617.192 726.238,611.868 735.417,606.793 729.779,599.004 720.489,584.716 "/>
   <polygon id="_127015336" points="682.88,594.807 690.251,591.804 694.167,603.332 720.49,584.716 719.362,582.648 711.827,567.863 702.121,552.051 690.733,535.842 690.859,534.989 690.583,534.997 688.357,534.936 679.274,531.682 674.445,531.366 674.426,531.303 674.418,531.342 668.554,535.313 670.053,541.894 671.992,547.143 671.322,549.047 673.12,551.774 674.13,556.999 674.903,557.004 677.042,567.538 676.572,574.876 680.118,587.057 682.491,593.112 "/>
</g>
<g id="Центральный район">
   <polygon id="_124768240" points="667.112,515.881 671.141,519.945 671.204,521.221 675.088,527.783 676.337,529.773 674.533,530.766 674.426,531.303 674.445,531.366 679.274,531.682 681.829,532.597 690.358,509.553 677.398,505.937 677.398,505.938 673.969,504.983 673.968,504.984 677.396,505.938 673.298,511.534 "/>
   <polygon id="_126319256" points="681.829,532.597 690.358,509.553 694.465,510.93 708.407,521.378 716.282,518.384 717.413,520.13 721.376,525.007 714.522,529.101 696.445,534.817 690.583,534.997 688.357,534.936 "/>
   <polygon id="_126920272" points="689.482,509.26 694.465,510.93 708.407,521.378 716.282,518.384 715.282,514.884 716.846,506.522 720.446,497.817 722.582,483.558 720.619,474.786 711.589,471.069 704.315,475.417 697.494,478.646 690.136,478.999 689.671,490.694 690.708,490.732 "/>
   <polygon id="_124513952" points="690.136,478.998 689.671,490.694 690.708,490.732 689.482,509.265 677.398,505.937 678.054,503.021 677.152,498.302 674.037,492.91 673.72,487.531 672.879,484.015 670.706,479.682 673.615,478.009 677.6,476.69 677.622,476.738 683.233,478.336 685.857,478.82 "/>
   <polygon id="_127349736" points="667.112,515.881 673.298,511.534 677.396,505.938 653.957,499.413 652.853,500.154 664.871,517.49 667.105,515.874 "/>
   <polygon id="_126737888" points="653.957,499.413 677.398,505.938 678.054,503.021 677.152,498.302 674.037,492.91 673.72,487.531 672.879,484.015 670.706,479.682 667.318,481.63 660.593,485.803 655.058,487.836 651.809,493.14 651.808,493.14 651.818,493.131 655.02,498.701 "/>
</g>
<g id="Кронштадтский район">
  <metadata id="CorelCorpID_3Corel-Layer"/>
  <polygon points="157.678,332.357 160.42,332.516 161.856,333.704 163.207,333.82 164.234,334.642 164.417,335.512 166.635,336.722 168.555,337.545 171.731,337.386 173.515,339.121 179.431,340.013 181.168,341.475 181.621,341.201 183.727,342.755 185.118,342.57 185.807,343.368 186.561,343.39 186.926,342.663 187.932,342.298 188.32,342.594 188.663,341.658 191.039,341.658 191.039,342.846 191.862,343.029 192.045,343.851 193.117,343.851 193.324,344.674 194.372,344.398 194.787,345.381 196.249,345.519 196.409,346.364 198.485,346.433 201.343,347.461 201.459,348.787 201.185,349.427 202.005,349.928 203.744,349.335 206.394,350.889 207.217,352.626 207.217,353.54 207.81,353.883 208.405,352.26 209.776,352.443 211.239,353.814 211.787,353.083 212.792,353.448 213.383,354.155 214.253,353.562 216.266,355.276 219.008,355.459 220.013,355.938 222.251,355.938 223.029,357.104 224.766,358.384 226.228,358.384 226.707,359.503 234.271,356.465 239.664,356.465 240.852,350.341 246.702,345.381 246.702,344.674 249.901,343.577 252.184,344.128 251.499,345.61 250.266,345.222 249.1,345.677 247.524,346.136 242.04,351.163 238.11,369.9 239.503,369.807 241.309,369.078 242.406,370.357 242.406,371.363 241.766,372.551 243.503,373.191 243.365,374.172 244.417,375.202 245.28,374.881 245.515,375.701 246.104,375.921 247.159,377.395 248.713,377.304 249.263,378.421 251.089,378.833 251.272,378.126 254.515,378.309 255.293,380.73 254.562,381.62 256.756,382.239 257.808,384.455 258.767,385.438 259.589,384.342 260.113,384.411 260.229,385.073 261.622,383.838 262.423,383.976 262.423,385.073 261.691,385.621 262.559,386.58 261.6,388.089 262.24,389.87 263.062,389.87 262.971,387.906 264.433,387.906 264.342,388.546 263.702,389.094 264.89,390.557 265.029,391.867 264.799,393.299 268.364,396.041 270.933,396.567 272.089,398.462 274.636,400.223 276.305,402.071 277.778,402.347 279.514,401.159 280.254,401.878 280.063,402.347 279.423,402.073 277.778,403.203 278.966,404.267 278.954,405.878 278.324,407.476 279.606,411.762 282.803,413.214 282.423,413.533 281.468,413.557 281.227,414.059 282.063,414.684 282.396,414.234 282.896,414.504 281.891,415.6 279.606,413.59 279.423,413.772 280.154,414.961 279.514,415.326 278.085,413.441 276.772,413.407 274.487,411.67 273.299,413.407 272.328,413.291 272.294,413.988 273.573,414.229 273.208,415.875 274.487,416.606 274.487,417.428 273.779,418.241 273.665,420.17 272.842,420.627 273.196,422.433 272.568,422.455 272.021,420.445 267.45,420.993 266.889,421.359 270.74,427.665 271.928,428.305 272.659,428.671 270.83,430.771 268.638,431.413 266.81,432.327 266.718,433.058 265.439,433.606 264.982,432.509 265.165,431.87 261.966,425.837 261.234,425.746 260.777,424.832 260.869,424.192 259.681,421.724 259.007,421.786 258.815,420.925 256.664,419.896 254.745,420.17 254.288,418.799 251.912,417.703 250.449,418.251 249.809,416.789 247.524,415.692 246.153,416.149 246.153,414.869 242.784,413.407 242.863,406.859 241.949,406.174 241.973,405.317 243.147,404.267 243.513,400.737 242.406,400.245 241.309,398.143 240.668,398.288 240.464,397.582 239.319,397.904 238.447,397.404 237.694,397.689 235.951,397.01 231.438,402.439 232.443,403.261 231.899,404.137 229.986,403.353 228.546,403.591 227.965,401.876 228.848,401.137 229.921,401.616 231.164,401.708 234.077,398.017 234.111,397.127 232.1,395.744 229.793,394.839 229.701,393.664 230.981,391.745 232.352,391.745 234.089,392.761 234.739,392.818 235.47,391.905 235.539,391.004 234.866,389.929 234.866,388.637 233.654,387.303 232.809,387.608 231.347,387.084 229.701,385.53 229.169,385.831 228.33,385.088 227.416,385.073 224.492,382.422 224.354,381.591 223.395,380.686 222.389,380.686 221.932,380.046 219.739,379.04 218.744,379.347 217.362,378.778 216.956,379.211 215.548,378.675 214.726,379.039 214.458,380.286 208.05,389.565 208.314,391.105 208.04,392.568 206.943,392.75 206.943,393.664 208.976,394.351 209.912,395.366 209.593,396.589 208.838,396.496 208.119,395.537 206.303,394.942 205.48,393.939 203.652,398.6 200.453,397.595 203.104,391.379 200.995,392.668 200.435,391.745 202.556,390.191 203.606,388.615 203.72,386.218 202.83,381.965 201.916,377.852 200.636,375.157 199.722,369.809 199.251,369.635 198.624,366.917 196.706,363.594 194.248,358.648 190.856,353.997 188.959,351.724 187.84,351.438 187.292,350.706 187.292,349.701 186.195,349.427 186.104,348.239 184.824,347.325 179.523,347.083 178.426,346.045 177.512,345.771 177.374,344.595 176.415,343.406 175.684,343.303 174.847,342.858 170.755,343.334 167.549,339.738 165.904,339.556 164.694,340.216 163.345,338.367 162.157,337.728 160.694,337.728 160.591,338.63 159.734,338.914 159.049,336.722 161.013,334.608 160.134,333.478 157.784,333.249 "/>
</g>
</svg>
